<?xml version="1.0" encoding="iso-8859-1"?>
<!-- Generator: Adobe Illustrator 23.0.3, SVG Export Plug-In . SVG Version: 6.00 Build 0)  -->
<svg version="1.1" id="Layer_1" xmlns="http://www.w3.org/2000/svg" xmlns:xlink="http://www.w3.org/1999/xlink" x="0px" y="0px"
	 viewBox="0 0 48 48" style="enable-background:new 0 0 48 48;" xml:space="preserve">
<linearGradient id="SVGID_1_" gradientUnits="userSpaceOnUse" x1="9.8581" y1="-27.8581" x2="38.1419" y2="-56.1419" gradientTransform="matrix(1 0 0 -1 0 -18)">
	<stop  offset="0" style="stop-color:#9DFFCE"/>
	<stop  offset="1" style="stop-color:#50D18D"/>
</linearGradient>
<path style="fill:url(#SVGID_1_);" d="M44,24c0,11.045-8.955,20-20,20S4,35.045,4,24S12.955,4,24,4S44,12.955,44,24z"/>
<path style="opacity:0.05;enable-background:new    ;" d="M34,21h-7v-7c0-1.105-0.895-2-2-2h-2c-1.105,0-2,0.895-2,2v7h-7
	c-1.105,0-2,0.895-2,2v2c0,1.105,0.895,2,2,2h7v7c0,1.105,0.895,2,2,2h2c1.105,0,2-0.895,2-2v-7h7c1.105,0,2-0.895,2-2v-2
	C36,21.895,35.105,21,34,21z"/>
<path style="opacity:0.07;enable-background:new    ;" d="M34,21.5h-7.5V14c0-0.828-0.672-1.5-1.5-1.5h-2
	c-0.828,0-1.5,0.672-1.5,1.5v7.5H14c-0.828,0-1.5,0.672-1.5,1.5v2c0,0.828,0.672,1.5,1.5,1.5h7.5V34c0,0.828,0.672,1.5,1.5,1.5h2
	c0.828,0,1.5-0.672,1.5-1.5v-7.5H34c0.828,0,1.5-0.672,1.5-1.5v-2C35.5,22.172,34.828,21.5,34,21.5z"/>
<linearGradient id="SVGID_2_" gradientUnits="userSpaceOnUse" x1="22" y1="24" x2="26" y2="24">
	<stop  offset="0.824" style="stop-color:#135D36"/>
	<stop  offset="0.931" style="stop-color:#125933"/>
	<stop  offset="1" style="stop-color:#11522F"/>
</linearGradient>
<path style="fill:url(#SVGID_2_);" d="M23,13h2c0.552,0,1,0.448,1,1v20c0,0.552-0.448,1-1,1h-2c-0.552,0-1-0.448-1-1V14
	C22,13.448,22.448,13,23,13z"/>
<linearGradient id="SVGID_3_" gradientUnits="userSpaceOnUse" x1="13" y1="24" x2="35" y2="24">
	<stop  offset="0.824" style="stop-color:#135D36"/>
	<stop  offset="0.931" style="stop-color:#125933"/>
	<stop  offset="1" style="stop-color:#11522F"/>
</linearGradient>
<path style="fill:url(#SVGID_3_);" d="M35,23v2c0,0.552-0.448,1-1,1H14c-0.552,0-1-0.448-1-1v-2c0-0.552,0.448-1,1-1h20
	C34.552,22,35,22.448,35,23z"/>
</svg>