<?xml version="1.0" encoding="utf-8"?>
<!-- Generator: Adobe Illustrator 27.5.0, SVG Export Plug-In . SVG Version: 6.00 Build 0)  -->
<svg version="1.1" id="Calque_2_00000117635606043195232470000011205234176950290326_"
	 xmlns="http://www.w3.org/2000/svg" xmlns:xlink="http://www.w3.org/1999/xlink" x="0px" y="0px" viewBox="0 0 1478.4 348.6"
	 style="enable-background:new 0 0 1478.4 348.6;" xml:space="preserve">
<style type="text/css">
	.st0{fill:#1B9CDD;}
	.st1{fill:#CAE6FF;}
	.st2{fill:#30195E;}
	.st3{fill:#FF007A;}
	.st4{fill:url(#SVGID_1_);}
	.st5{fill:url(#SVGID_00000042710403789721385770000008227178231132304536_);}
	.st6{fill:url(#SVGID_00000096047055412380362540000017285140419194804885_);}
	.st7{fill:url(#SVGID_00000065070287740076014360000003225169457059668362_);}
	.st8{fill:url(#SVGID_00000103248689725675935100000014017969831262857142_);}
	.st9{fill:url(#SVGID_00000057841879669405868450000007621515264552421298_);}
	.st10{fill:url(#SVGID_00000026152729468094984410000003691004155067346825_);}
	.st11{fill:url(#SVGID_00000166660688912090657180000002721646289171244686_);}
	.st12{fill:#FFAA00;}
	.st13{fill:#FFFFFF;}
	.st14{fill:#C97200;}
	.st15{stroke:#000000;stroke-miterlimit:10;}
	.st16{fill:url(#SVGID_00000008839623498070250250000014784371002576281749_);}
	.st17{fill:url(#SVGID_00000085947690042044728120000006981369557640313233_);}
	.st18{fill:url(#SVGID_00000139277814158258902120000013968350104317944735_);}
	.st19{fill:url(#SVGID_00000005988643506821846480000012656918559741697207_);}
	.st20{fill:url(#SVGID_00000092419920911309108410000013185653533291567538_);}
	.st21{fill:url(#SVGID_00000080166931622971576590000010975336742847816374_);}
	.st22{fill:url(#SVGID_00000103952884494779514180000007368428739225148845_);}
	.st23{fill:url(#SVGID_00000102534023641775687790000013466901434225662142_);}
	.st24{fill:#A80058;}
	.st25{fill:url(#SVGID_00000083075035101207279930000004705541450871364480_);}
	.st26{fill:url(#SVGID_00000160905645784082131250000011551274731861335226_);}
	.st27{fill:url(#SVGID_00000052785345596666212540000001053935193557334966_);}
	.st28{fill:url(#SVGID_00000116927062831314878960000005558068545157148302_);}
	.st29{fill:url(#SVGID_00000159466934366228290670000000538563403326206085_);}
	.st30{fill:url(#SVGID_00000113349616859980357580000001189974047902410641_);}
	.st31{fill:url(#SVGID_00000070097522327641109580000017729847149398987156_);}
	.st32{fill:url(#SVGID_00000023280318456427999800000018247621154472480434_);}
</style>
<g id="FONDS">
	<g>
		<path class="st0" d="M73,163.9c1.1-3,2.2-6,3.3-9c0.6-1.6,0.2-2.4-1.3-2.4c-0.3,0-0.7,0-1,0.1c-2.6,0.5-5.2,1-7.8,1.5
			c-2,5-3.9,10-5.9,15.1c2.7-0.6,5.4-1.1,8.1-1.6C70.7,167.1,72.3,165.9,73,163.9L73,163.9z"/>
		<path class="st0" d="M82,139.6c1.1-2.9,2.2-5.8,3.3-8.7c0.6-1.5,0.2-2.4-1.2-2.4c-0.3,0-0.6,0-0.9,0.1c-2.4,0.4-4.9,0.8-7.3,1.3
			c-2,4.8-3.9,9.6-5.9,14.5c2.5-0.5,5.1-0.9,7.6-1.4C79.8,142.6,81.4,141.4,82,139.6L82,139.6z"/>
		<path class="st0" d="M168.2,152.2c1.5-10.1,3-20.2,4.5-30.3c0.2-1.7-0.6-2.6-2.5-2.6c-0.1,0-0.2,0-0.3,0c-2.5,0.1-5,0.3-7.4,0.4
			c-2.1,11.9-4.3,23.8-6.5,35.9c2.8-0.2,5.5-0.4,8.3-0.6C166.6,155,168,154,168.2,152.2L168.2,152.2z"/>
		<path class="st0" d="M213.4,118.2L213.4,118.2c-2.5,0-5,0-7.5,0.1c-0.6,11.8-1.1,23.5-1.7,35.3c2.8,0,5.5-0.1,8.3-0.1
			c2.3,0,3.6-0.9,3.6-2.6c0.2-10,0.3-19.9,0.5-29.9C216.6,119.1,215.5,118.2,213.4,118.2L213.4,118.2z"/>
	</g>
	<path d="M390.9,248.7l17.8-19.5l-18.2-3.2c-6.1-1.1-20.8-3.6-34.7-5.7l-3.7-18.1c7.1,0.9,19.8,2.7,30.6,4.3l14.4,2.2l7.8-11.1
		l-6.2-14.6l0,0l-8.8-20.7L383,146h11l-11.6-26.9l-5.5-1.2c-1.3-0.3-2.7-0.6-4.1-0.8l0,0l0,0c-1.9-0.3-3.8-0.7-5.8-1
		c0,0-13.8-2.3-20.9-3.2c-0.2,0-7.7-1.1-11.3-1.5V67.3l-6.1-2.9l-3.4-1.6c-16.6-7.9-33.3-14.1-49.6-18.4c-6.3-1.7-12.6-3.1-18.9-4.3
		l-20.9-3.6l-6.2-0.8l-2.8-5L216.3,12l-10.5,18.6l-2.8,5l-6.2,0.8l-21.5,3c-7.1,1.3-14.2,2.9-21.2,4.8
		c-15.7,4.3-31.5,10.5-47.1,18.3l-3.2,1.6L97.9,67v44.5c-18.1,2.1-37.5,7-37.5,7l-2.6,6c0,0,0,0.1-0.1,0.1
		c-6.7,15-13.2,30.3-19.4,45.7l-11.5,27.1l8.1,11.5l13.7-2.4c16.4-2.4,37.5-5,37.5-5l-3.9,19.6c-13.9,2.1-52.9,8.8-52.9,8.8
		s15.7,16.8,17.8,18.6c-0.5,0.5-1.1,1-1.6,1.4c-3.3,2.9-29.8,31.6-29.8,31.6l31.1-5.5c22.3-3.9,45.1-7.3,67.7-10l24.1,35.3l1.6,2.4
		l2.7,1.3l75.8,37l76.4-37l2.7-1.3l1.6-2.4l24.1-35.3c22.6,2.8,45.4,6.1,67.7,10l31.1,5.5L390.9,248.7L390.9,248.7z"/>
	<path class="st1" d="M216.3,12l10.5,18.6l2.8,5l6.2,0.8l20.9,3.6c6.3,1.2,12.6,2.6,18.9,4.3c16.3,4.4,33,10.6,49.6,18.4l3.4,1.6
		l6.1,2.9v44.1c22.4,2.7,47.6,7.8,47.6,7.8l11.6,26.9h-11l6.9,16.2l8.8,20.7l0,0l6.2,14.6l-7.8,11.1l-14.4-2.2
		c-10.9-1.6-23.5-3.3-30.6-4.3l2.7,19.1l52.9,8.8l-16.8,18.6l31.4,33.1l-31.1-5.5c-22.3-3.9-45.1-7.3-67.7-10l-24.1,35.3l-1.6,2.4
		l-2.7,1.3l-76.4,37l-75.8-37l-2.7-1.3l-1.6-2.4l-24.1-35.3c-22.6,2.8-45.4,6.1-67.7,10l-31.1,5.5c0,0,26.5-28.7,29.8-31.6
		c0.5-0.5,1.1-1,1.6-1.4l-16.8-18.6l52.9-8.8l2.9-19.6c0,0-21.2,2.7-37.5,5l-13.7,2.4l-8.1-11.5l11.5-27.1
		c6.2-15.3,12.7-30.6,19.4-45.7c0,0,0-0.1,0.1-0.1l2.6-6c0,0,19.4-4.8,37.5-7V67.1l5.9-2.9l3.2-1.6c15.6-7.8,31.4-14,47.1-18.3
		c7-1.9,14.1-3.5,21.2-4.8l21.5-3l6.2-0.8l2.8-5L216.3,12 M216.4,0l-5.3,9.4L200.6,28l-1.4,2.4l-3.2,0.4l0,0l0,0l-21.5,3h-0.1h-0.1
		c-7.4,1.3-14.7,3-21.8,4.9c-16.1,4.4-32.3,10.7-48.2,18.7L101,59l-5.9,3l-3.2,1.6v43c-16.6,2.3-32.4,6.3-33.1,6.4l-2.9,0.7
		l-1.1,2.6l-2.5,5.8c0,0.1-0.1,0.1-0.1,0.2c-6.6,14.8-13.2,30.2-19.5,45.8l-11.5,27.1l-1.1,2.7l1.7,2.4l8.1,11.5l2.2,3.1l3.9-0.7
		l13.6-2.4c10.1-1.4,22.1-3,29.7-4c-0.5,4-1,4.2-1.5,8.2c-13,2-26,4.1-31.3,5l-18.2,3.2l-9,1.7l19.6,22.2
		c-7.1,7.3-25.4,27.1-27.7,29.6L0,290.2l16.8-3l31.1-5.5c20.9-3.7,42.3-6.9,63.6-9.5l22.1,32.3l1.6,2.4l0.9,1.2l1.4,0.7l2.7,1.3
		l75.8,37l2.8,1.4l2.8-1.4l76.4-37l2.7-1.3l1.4-0.7l0.9-1.2l1.6-2.4l22.1-32.3c21.3,2.7,42.7,5.9,63.6,9.5l31.1,5.5l17.2,3
		L426.8,278l-28-29.5l20.1-22.2l-58.6-9.9l-1.3-7.7c6.8,0.9,15.3,2.1,22.9,3.2l14.4,2.2l3.9,0.6l2.1-3.1l7.8-11.1l1.7-2.4l-1.1-2.7
		l-6.2-14.6l-8.8-20.7l-3.6-8.5h2.1h8.9l-3.3-7.7L387.9,117l-1.2-2.7l-3.1-0.6c-0.2-0.1-21.9-4.4-42.9-7.2V63.8l-3.3-1.5l-6.1-2.9
		l-3.4-1.6c-17-8-34-14.3-50.7-18.8c-6.4-1.7-12.9-3.2-19.4-4.4l0,0l0,0L236.9,31h-0.1h-0.1l-3.2-0.4l-1.4-2.4L221.6,9.4L216.4,0
		L216.4,0L216.4,0z"/>
	<polygon class="st2" points="416.3,281 416.3,281.6 417,281.7 	"/>
	<polygon class="st2" points="16.4,281 16.4,281.6 15.7,281.7 	"/>
	<path class="st3" d="M395.3,266.2l-18.5-17.8l13.2-11.5c-7.1-1.2-27.7-4.6-43.1-6.9l-3.9-29.6c0,0-51.3-8.8-124.2-8.4
		c-72.9-0.5-124.2,8.4-124.2,8.4L90.5,230c-15.4,2.3-35.9,5.7-43.1,6.9l13.2,11.5l-18.5,17.8c23.3-4.1,46.7-7.5,70.2-10.4
		c-7.7-4.7-23.1-8.5-23.1-8.5s52.2-9.4,129.4-8.9c77.2-0.5,129.4,8.9,129.4,8.9s-15.4,3.8-23.1,8.5
		C348.6,258.7,372,262.2,395.3,266.2L395.3,266.2z"/>
	<g>
		
			<linearGradient id="SVGID_1_" gradientUnits="userSpaceOnUse" x1="70.2663" y1="-143.122" x2="71.4963" y2="-94.022" gradientTransform="matrix(1 0 0 1 0 264.9606)">
			<stop  offset="0" style="stop-color:#FFFFFF"/>
			<stop  offset="1" style="stop-color:#CAE6FF"/>
		</linearGradient>
		<path class="st4" d="M92.3,144.8c-0.9,2.6-3.9,5-7.1,5.9c0,0.1,0,0.1-0.1,0.1c2.9-0.1,4.5,1.6,3.6,4.2c-1.5,4.4-3.1,8.9-4.6,13.4
			c-2.3,6.9-8.2,11.5-16.8,13.2c-7.2,1.5-14.5,3-21.7,4.7c-0.9,0.2-1.3-0.1-1-0.9c8-20.2,16-39.1,24-57c0.3-0.8,1-1.2,1.8-1.4
			c6.3-1.2,12.5-2.4,18.8-3.4c7.3-1.2,10.1,1.7,7.8,8.2C95.3,136.2,93.8,140.5,92.3,144.8L92.3,144.8z M85.4,135.5
			c0.7-1.8,0-2.6-2.1-2.3c-2.4,0.4-4.9,0.8-7.3,1.3c-2,4.8-3.9,9.6-5.9,14.5c2.5-0.5,5.1-0.9,7.6-1.4c2.2-0.4,3.7-1.6,4.4-3.4
			C83.2,141.3,84.3,138.4,85.4,135.5L85.4,135.5z M76.3,159.5c0.7-1.9,0-2.7-2.3-2.3c-2.6,0.5-5.2,1-7.8,1.5c-2,5-3.9,10-5.9,15.1
			c2.7-0.6,5.4-1.1,8.1-1.6c2.3-0.4,3.9-1.7,4.6-3.7C74.1,165.5,75.2,162.5,76.3,159.5L76.3,159.5z"/>
		
			<linearGradient id="SVGID_00000060734726649086673180000017187871600055707270_" gradientUnits="userSpaceOnUse" x1="118.3574" y1="-144.2418" x2="119.5874" y2="-95.1418" gradientTransform="matrix(1 0 0 1 0 264.9606)">
			<stop  offset="0" style="stop-color:#FFFFFF"/>
			<stop  offset="1" style="stop-color:#CAE6FF"/>
		</linearGradient>
		<path style="fill:url(#SVGID_00000060734726649086673180000017187871600055707270_);" d="M141.1,117.4c0.9-0.1,1.4,0.5,1.2,1.2
			c-3.5,14.2-7,28.6-10.5,43.3c-1.5,6.5-7,10.5-15.6,11.6c-3.4,0.5-6.8,0.9-10.2,1.4c-8.6,1.3-12-1.6-9.8-8.4
			c4.9-15.3,9.8-30.2,14.6-44.6c0.2-0.8,1.2-1.4,2-1.6c2.5-0.3,5-0.6,7.6-0.9c0.9-0.1,1.4,0.4,1.2,1.2c-4.2,13.7-8.4,27.8-12.7,42.1
			c-0.6,1.9,0.4,2.7,2.7,2.4c1.6-0.2,3.1-0.4,4.7-0.6c2.3-0.3,3.8-1.4,4.3-3.2c3.8-14.2,7.6-28.1,11.4-41.7c0.2-0.7,1.1-1.4,1.9-1.5
			C136.3,117.8,138.7,117.6,141.1,117.4L141.1,117.4z"/>
		
			<linearGradient id="SVGID_00000045617875280472215810000011933236169991423935_" gradientUnits="userSpaceOnUse" x1="162.2048" y1="-145.2787" x2="163.4348" y2="-96.1687" gradientTransform="matrix(1 0 0 1 0 264.9606)">
			<stop  offset="0" style="stop-color:#FFFFFF"/>
			<stop  offset="1" style="stop-color:#CAE6FF"/>
		</linearGradient>
		<path style="fill:url(#SVGID_00000045617875280472215810000011933236169991423935_);" d="M153.1,117.5c0.1-0.7,0.6-1.1,1.5-1.2
			c6.3-0.4,12.6-0.8,18.9-1.1c7.4-0.3,10.9,2.9,10.2,9.1c-1.3,11.2-2.6,22.5-4,33.8c-0.7,6.2-5.7,9.8-14.4,10.4
			c-7.4,0.5-14.7,1.1-22.1,1.8c-1,0.1-1.4-0.2-1.2-0.9C145.8,151.8,149.5,134.5,153.1,117.5z M164.2,159.8c2.3-0.2,3.7-1.1,4-2.9
			c1.5-10.1,3-20.2,4.5-30.3c0.3-1.8-0.7-2.7-2.8-2.6c-2.5,0.1-5,0.3-7.4,0.4c-2.1,11.9-4.3,23.8-6.5,35.9
			C158.7,160.2,161.5,160,164.2,159.8L164.2,159.8z"/>
		
			<linearGradient id="SVGID_00000065072436870081805740000010201114210008262790_" gradientUnits="userSpaceOnUse" x1="208.6401" y1="-146.4011" x2="209.8701" y2="-97.2111" gradientTransform="matrix(1 0 0 1 0 264.9606)">
			<stop  offset="0" style="stop-color:#FFFFFF"/>
			<stop  offset="1" style="stop-color:#CAE6FF"/>
		</linearGradient>
		<path style="fill:url(#SVGID_00000065072436870081805740000010201114210008262790_);" d="M195.5,115.5c0.1-0.7,0.5-1.1,1.4-1.1
			c6.3-0.2,12.6-0.2,18.9-0.3c7.4,0,11.4,3.4,11.5,9.6c0.2,11.2,0.4,22.4,0.6,33.7c0.1,6.2-4.4,9.4-13.1,9.4
			c-7.4,0-14.8,0.1-22.1,0.4c-1,0-1.4-0.3-1.4-1C192.7,149.2,194.1,132.3,195.5,115.5L195.5,115.5z M212.4,158.1
			c2.3,0,3.6-0.9,3.6-2.6c0.2-10,0.3-19.9,0.5-29.9c0-1.8-1.1-2.7-3.2-2.7c-2.5,0-5,0-7.5,0.1c-0.6,11.8-1.1,23.5-1.7,35.3
			C206.9,158.1,209.7,158.1,212.4,158.1z"/>
		
			<linearGradient id="SVGID_00000179630847780927079990000008039341907623622335_" gradientUnits="userSpaceOnUse" x1="253.9854" y1="-147.4603" x2="255.2154" y2="-98.2603" gradientTransform="matrix(1 0 0 1 0 264.9606)">
			<stop  offset="0" style="stop-color:#FFFFFF"/>
			<stop  offset="1" style="stop-color:#CAE6FF"/>
		</linearGradient>
		<path style="fill:url(#SVGID_00000179630847780927079990000008039341907623622335_);" d="M272.4,115.4c1.2,0.1,1.8,0.7,1.5,1.6
			c-3.2,9.7-6.9,19.4-11,29c0.8,7,1.7,13.9,2.5,20.9c0.1,0.9-0.5,1.3-1.7,1.2c-3-0.2-5.9-0.4-8.8-0.5c-1.2-0.1-1.9-0.6-2-1.4
			c-0.6-6.9-1.2-13.9-1.8-20.8c-6.1-10.1-11.8-20-17-29.8c-0.5-0.9,0-1.5,1.2-1.5c2.6,0,5.3,0.1,7.9,0.1c0.9,0,1.5,0.4,1.9,1.1
			c3.4,6.4,7,12.8,10.8,19.3c2.5-6.2,4.8-12.5,6.9-18.8c0.2-0.7,0.7-1,1.7-1C267.1,115.2,269.8,115.3,272.4,115.4L272.4,115.4z"/>
		
			<linearGradient id="SVGID_00000104681313850815880260000012040040340528605831_" gradientUnits="userSpaceOnUse" x1="299.3453" y1="-148.5215" x2="300.5753" y2="-99.3315" gradientTransform="matrix(1 0 0 1 0 264.9606)">
			<stop  offset="0" style="stop-color:#FFFFFF"/>
			<stop  offset="1" style="stop-color:#CAE6FF"/>
		</linearGradient>
		<path style="fill:url(#SVGID_00000104681313850815880260000012040040340528605831_);" d="M315.9,126.6c0.2,0.7-0.2,1.1-1,1
			c-6.7-0.7-13.4-1.3-20-1.9c1,4.6,2,9.2,3,13.8c5.3,0.5,10.5,1,15.8,1.6c0.8,0.1,1.5,0.6,1.6,1.3c0.6,2.3,1.2,4.7,1.8,7
			c0.2,0.8-0.2,1.1-1.1,1c-5.4-0.6-10.8-1.2-16.2-1.7c1.6,7.4,3.2,14.8,4.8,22.2c0.1,0.7-0.3,1.1-1.2,0.9c-3.2-0.4-6.4-0.7-9.5-1.1
			c-1-0.1-1.5-0.6-1.7-1.3c-3.3-17.7-6.5-35.2-9.8-52.4c-0.1-0.7,0.2-1.1,1.1-1c9.7,0.6,19.3,1.4,29,2.4c0.8,0.1,1.4,0.5,1.6,1.2
			C314.6,122,315.2,124.3,315.9,126.6L315.9,126.6z"/>
		
			<linearGradient id="SVGID_00000081609892715672524930000010960762704142272672_" gradientUnits="userSpaceOnUse" x1="338.1405" y1="-149.4194" x2="339.3705" y2="-100.2193" gradientTransform="matrix(1 0 0 1 0 264.9606)">
			<stop  offset="0" style="stop-color:#FFFFFF"/>
			<stop  offset="1" style="stop-color:#CAE6FF"/>
		</linearGradient>
		<path style="fill:url(#SVGID_00000081609892715672524930000010960762704142272672_);" d="M333.8,121c0.8,0.1,1.4,0.6,1.6,1.3
			c6,17.9,12,36.5,18,55.9c0.2,0.8-0.2,1.1-1.1,0.9c-3.1-0.6-6.3-1.1-9.5-1.7c-1-0.2-1.6-0.7-1.8-1.4c-5.5-19-10.9-37.3-16.4-55.1
			c-0.2-0.7,0-1.1,0.9-1C328.3,120.3,331.1,120.6,333.8,121L333.8,121z"/>
		
			<linearGradient id="SVGID_00000143574998189466099600000009983780876692656544_" gradientUnits="userSpaceOnUse" x1="365.2808" y1="-150.0694" x2="366.5109" y2="-100.8594" gradientTransform="matrix(1 0 0 1 0 264.9606)">
			<stop  offset="0" style="stop-color:#FFFFFF"/>
			<stop  offset="1" style="stop-color:#CAE6FF"/>
		</linearGradient>
		<path style="fill:url(#SVGID_00000143574998189466099600000009983780876692656544_);" d="M374.2,127.9c0.9,0.2,1.4,0.7,1.8,1.4
			c1,2.4,2.1,4.8,3.1,7.3c0.3,0.7,0.1,1.1-0.8,0.9c-3.1-0.7-6.2-1.3-9.3-1.9c6.4,15.9,12.7,32.4,19,49.9c0.3,0.9,0,1.2-1,0.9
			c-3.1-0.7-6.2-1.4-9.4-2.1c-0.9-0.2-1.6-0.7-1.9-1.6c-5.9-17.1-11.8-33.4-17.7-49.1c-3.1-0.5-6.2-1.1-9.3-1.5
			c-0.8-0.1-1.4-0.6-1.7-1.3c-0.8-2.4-1.7-4.8-2.5-7.1c-0.2-0.7,0.1-1.1,0.9-0.9C355,124.2,364.6,125.9,374.2,127.9L374.2,127.9z"/>
	</g>
	<path class="st12" d="M38,197.9c29.1-6.3,58.7-11,88.5-14.2s59.8-4.8,89.9-4.9c30-0.1,60.1,1.4,89.9,4.6
		c29.8,3.2,59.4,7.9,88.4,14.5c-29.5-4.9-59-8.7-88.8-11.2c-29.7-2.5-59.6-3.8-89.5-3.7s-59.7,1.4-89.5,4
		C97.1,189.5,67.5,193.3,38,197.9L38,197.9z"/>
	<g>
		<path class="st13" d="M194.3,264.1c-0.3,0.1-0.4,0.3-0.3,0.6c0.1,0.7,0.1,1.4,0.2,2.1c0,0.3,0.2,0.5,0.6,0.5c1,0,1.9,0,2.9,0
			c0-0.3-0.1-0.7-0.1-1s0.1-0.5,0.5-0.5c0.9,0,1.7,0,2.6,0c0.4,0,0.6,0.2,0.6,0.5c0.1,1.3,0.2,2.5,0.3,3.8c0,0.3-0.1,0.5-0.5,0.5
			c-3.2,0-6.4,0-9.5,0c-0.3,0-0.6-0.2-0.6-0.5c-0.3-2.4-0.6-4.8-0.9-7.1c-0.1-0.5,0.1-0.7,0.6-0.9c2.1-1.1,4.1-2.2,6.3-3.3
			c-0.1-1.2-0.2-2.4-0.3-3.7c-0.1-0.6-0.5-1-1.2-0.9c-0.4,0-0.9,0-1.4,0.1c-0.8,0-1.1,0.4-1,1s0.1,1.3,0.2,1.9
			c0,0.2-0.1,0.4-0.4,0.4c-1,0-1.9,0.1-2.9,0.1c-0.3,0-0.5-0.1-0.5-0.4c-0.1-0.9-0.2-1.7-0.3-2.6c-0.3-2.3,1-3.6,3.7-3.7
			c1.1-0.1,2.1-0.1,3.2-0.2c2.7-0.1,4.2,1.1,4.4,3.4c0.1,2,0.3,3.9,0.4,5.9c0,0.5-0.2,0.7-0.7,0.9C198.2,262,196.3,263,194.3,264.1
			L194.3,264.1z"/>
		<path class="st13" d="M204.3,254.1c-0.1-2.4,1.2-3.7,3.9-3.7c1.1,0,2.1,0,3.2-0.1c2.7,0,4.1,1.2,4.2,3.6c0.1,4.3,0.1,8.7,0.1,13
			c0,2.4-1.3,3.6-3.8,3.6c-1,0-2,0-3,0c-2.5,0-3.9-1.3-4-3.6C204.8,262.7,204.5,258.4,204.3,254.1L204.3,254.1z M211.2,267.3
			c0.7,0,1.1-0.3,1.1-1c-0.1-3.9-0.2-7.8-0.3-11.7c0-0.7-0.4-1-1.2-1c-0.6,0-1.1,0-1.6,0c-0.7,0-1.1,0.4-1.1,1
			c0.2,3.9,0.3,7.8,0.5,11.7c0,0.7,0.4,1,1.1,1C210.2,267.3,210.7,267.3,211.2,267.3L211.2,267.3z"/>
		<path class="st13" d="M223.5,263.9c-0.3,0.1-0.4,0.3-0.4,0.6c0,0.7,0,1.5,0,2.2c0,0.3,0.2,0.5,0.5,0.5c1,0,1.9,0,2.9,0
			c0-0.4,0-0.7,0-1s0.2-0.5,0.6-0.5c0.9,0,1.7,0,2.6,0c0.4,0,0.5,0.2,0.5,0.5c-0.1,1.3-0.1,2.6-0.2,3.9c0,0.3-0.2,0.5-0.6,0.5
			c-3.2,0-6.4,0-9.5,0c-0.3,0-0.5-0.2-0.5-0.5c0-2.5,0-5,0-7.5c0-0.5,0.2-0.7,0.7-0.9c2.2-1.1,4.4-2.1,6.6-3.2
			c0-1.2,0.1-2.5,0.1-3.7c0-0.7-0.4-1-1.1-1c-0.4,0-0.9,0-1.4,0c-0.8,0-1.1,0.3-1.1,1s0,1.3,0,2c0,0.2-0.2,0.4-0.4,0.4
			c-1,0-1.9,0-2.9,0c-0.3,0-0.4-0.1-0.4-0.4c0-0.9,0-1.8,0-2.7c0-2.4,1.4-3.7,4.1-3.6c1.1,0,2.1,0,3.2,0c2.7,0.1,4.1,1.4,4,3.7
			c-0.1,2-0.2,4-0.3,5.9c0,0.5-0.2,0.7-0.8,0.9C227.6,261.8,225.6,262.8,223.5,263.9L223.5,263.9z"/>
		<path class="st13" d="M246.7,261.8c0.4,0,0.5,0.2,0.5,0.5c-0.1,0.7-0.2,1.4-0.2,2.1c0,0.3-0.2,0.5-0.6,0.5c-0.4,0-0.7,0-1.1,0
			c-0.2,1.8-0.4,3.5-0.6,5.3c0,0.3-0.2,0.5-0.6,0.5c-0.8,0-1.5,0-2.3,0c-0.3,0-0.5-0.2-0.5-0.5c0.2-1.8,0.3-3.6,0.5-5.4
			c-2.6,0-5.2-0.1-7.8-0.1c-0.4,0-0.5-0.2-0.5-0.5c0-0.7,0.1-1.5,0.1-2.2c0-0.2,0.1-0.4,0.2-0.6c2.6-3.4,5.2-6.8,8-10.1
			c0.2-0.2,0.4-0.3,0.7-0.3c1,0.1,2,0.1,3,0.2c0.5,0,0.6,0.3,0.3,0.6c-2.8,3.2-5.4,6.6-8,10c1.4,0,2.8,0.1,4.2,0.1
			c0.1-1,0.2-2,0.3-3c0-0.3,0.2-0.5,0.6-0.5c0.8,0,1.6,0.1,2.4,0.1c0.4,0,0.5,0.2,0.5,0.5c-0.1,1-0.2,1.9-0.3,2.9
			C245.9,261.7,246.3,261.8,246.7,261.8L246.7,261.8z"/>
	</g>
	<g>
		<g>
			<polygon class="st12" points="283.1,254.4 267.1,277.8 218.7,301.4 170.3,277.8 154.3,254.4 175.1,273.8 218.7,291.7 
				262.3,273.8 			"/>
			<path class="st13" d="M124.8,253.6c-1.9,0.2-6.9,1.2-6.9,1.2l28.3,41.5l72.4,35.4v-5.2L151,292.3L124.8,253.6L124.8,253.6z"/>
			<path class="st1" d="M218.7,318.7v7.7L151,292.3l-26.1-38.7c2.3-0.2,4.6-0.4,6.9-0.6l23.9,34.9L218.7,318.7z"/>
			<path class="st1" d="M312.5,253.6c1.9,0.2,6.9,1.2,6.9,1.2l-28.3,41.5l-72.4,35.4v-5.2l67.7-34.1L312.5,253.6L312.5,253.6z"/>
			<path class="st13" d="M218.7,318.7v7.7l67.7-34.1l26.1-38.7c-2.3-0.2-4.6-0.4-6.9-0.6l-23.9,34.9L218.7,318.7L218.7,318.7z"/>
			<polygon class="st14" points="283.1,254.4 265.6,275 218.7,296 171.8,275 154.3,254.4 175.1,273.8 218.7,291.7 262.3,273.8 			
				"/>
		</g>
		<g>
			<path class="st15" d="M135.7,213.9c0,0.4-0.3,0.6-0.8,0.7c-1.5,0.2-2.9,0.3-4.4,0.5c-0.5,0.1-0.7-0.1-0.7-0.5c0.1-1,0.1-2,0.2-3
				c0.1-1-0.5-1.4-1.6-1.3c-0.8,0.1-1.5,0.2-2.3,0.3c-1.2,0.1-1.8,0.7-1.9,1.7c-0.5,5.8-1,11.5-1.5,17.3c-0.1,1,0.5,1.4,1.7,1.3
				c0.8-0.1,1.6-0.2,2.4-0.3c1.2-0.1,1.9-0.7,1.9-1.7c0.1-1,0.1-2,0.2-3c0-0.4,0.3-0.6,0.8-0.7c1.5-0.2,3-0.3,4.5-0.5
				c0.4-0.1,0.7,0.1,0.7,0.5c-0.1,1.4-0.2,2.7-0.2,4.1c-0.2,3.6-2.7,5.7-7,6.2c-1.7,0.2-3.4,0.4-5.2,0.6c-4.3,0.5-6.5-1.2-6.2-4.7
				c0.6-6.5,1.2-12.9,1.9-19.4c0.3-3.6,2.8-5.7,6.9-6.2c1.6-0.2,3.3-0.4,4.9-0.6c4.1-0.5,6.1,1.2,5.9,4.7
				C135.9,211.2,135.8,212.6,135.7,213.9L135.7,213.9z"/>
			<path class="st15" d="M149.2,208.6c0.3-3.6,2.6-5.6,6.6-5.9c1.6-0.1,3.2-0.2,4.8-0.4c4-0.3,6.1,1.4,6,5c-0.2,6.5-0.5,13-0.7,19.5
				c-0.1,3.6-2.5,5.6-6.7,5.9c-1.7,0.1-3.4,0.2-5.1,0.4c-4.3,0.3-6.4-1.4-6.2-5C148.2,221.6,148.7,215.1,149.2,208.6z M158.2,227.9
				c1.2-0.1,1.8-0.6,1.9-1.6c0.3-5.9,0.6-11.7,0.9-17.6c0.1-1-0.5-1.5-1.7-1.4c-0.8,0.1-1.7,0.1-2.5,0.2c-1.1,0.1-1.8,0.7-1.8,1.6
				c-0.4,5.9-0.7,11.7-1.1,17.6c-0.1,1,0.5,1.5,1.7,1.4C156.4,228,157.3,227.9,158.2,227.9L158.2,227.9z"/>
			<path class="st15" d="M197.4,200.5c0.4,0,0.7,0.2,0.7,0.6c-0.1,9.8-0.2,19.5-0.3,29.2c0,0.4-0.3,0.6-0.7,0.6
				c-1.5,0.1-3,0.1-4.5,0.1c-0.4,0-0.7-0.1-0.8-0.5c-2.2-5.4-4.3-10.7-6.4-16c-0.1,0-0.1,0-0.2,0c-0.2,5.4-0.4,10.8-0.5,16.1
				c0,0.4-0.2,0.6-0.7,0.6c-1.6,0.1-3.1,0.1-4.7,0.2c-0.4,0-0.7-0.2-0.7-0.6c0.4-9.8,0.9-19.5,1.3-29.2c0-0.4,0.3-0.6,0.7-0.6
				c1.4-0.1,2.8-0.1,4.2-0.2c0.4,0,0.6,0.1,0.8,0.5c2,5.3,4,10.6,6.1,15.9c0.1,0,0.2,0,0.3,0c0.1-5.4,0.2-10.7,0.3-16.1
				c0-0.4,0.2-0.6,0.7-0.6C194.5,200.6,196,200.5,197.4,200.5L197.4,200.5z"/>
			<path class="st15" d="M226.6,200.3c0.5,0,0.7,0.2,0.7,0.6c0,1.3,0.1,2.5,0.1,3.8c0,0.4-0.2,0.6-0.7,0.6c-1.7,0-3.3,0-5,0
				c0.1,8.3,0.1,16.6,0.2,24.8c0,0.4-0.2,0.6-0.7,0.6c-1.6,0-3.1,0-4.7,0c-0.4,0-0.7-0.2-0.7-0.6c0-8.3,0.1-16.6,0.1-24.8
				c-1.7,0-3.3,0-5,0c-0.4,0-0.7-0.2-0.7-0.6c0-1.3,0-2.5,0.1-3.8c0-0.4,0.3-0.6,0.7-0.6C216.1,200.3,221.3,200.3,226.6,200.3
				L226.6,200.3z"/>
			<path class="st15" d="M256.2,205.7c0,0.4-0.1,0.6-0.7,0.6c-3.6-0.2-7.2-0.3-10.8-0.4c0.1,2.5,0.1,5.1,0.2,7.6
				c2.8,0.1,5.6,0.2,8.4,0.3c0.4,0,0.7,0.3,0.7,0.7c0.1,1.3,0.1,2.5,0.1,3.8c0,0.4-0.2,0.6-0.7,0.6c-2.8-0.1-5.6-0.2-8.4-0.3
				c0.1,2.6,0.1,5.1,0.2,7.7c3.7,0.1,7.5,0.3,11.2,0.4c0.5,0,0.7,0.2,0.7,0.6c0.1,1.3,0.1,2.5,0.2,3.8c0,0.4-0.2,0.6-0.7,0.6
				c-5.6-0.2-11.1-0.4-16.6-0.6c-0.4,0-0.7-0.2-0.7-0.6c-0.1-9.8-0.2-19.5-0.4-29.2c0-0.4,0.2-0.6,0.6-0.6
				c5.2,0.2,10.5,0.4,15.7,0.6c0.5,0,0.7,0.3,0.7,0.6C256.1,203.2,256.1,204.5,256.2,205.7L256.2,205.7z"/>
			<path class="st15" d="M278.8,202.9c4,0.3,6.4,2.4,6.6,6c0.1,1.3,0.2,2.7,0.3,4c0,0.4-0.2,0.6-0.7,0.6c-1.5-0.1-3-0.2-4.6-0.4
				c-0.4,0-0.7-0.3-0.7-0.7c-0.1-1-0.1-2-0.2-3s-0.7-1.6-1.8-1.7c-0.7-0.1-1.4-0.1-2.1-0.2c-1.1-0.1-1.7,0.4-1.7,1.4
				c0.1,1.8,0.2,3.5,0.3,5.2c3.5,1.2,7.1,2.5,10.7,3.8c0.8,0.3,1.2,0.8,1.3,1.5c0.2,2.9,0.4,5.9,0.6,8.8c0.3,3.6-1.9,5.3-6.2,5
				c-1.7-0.1-3.4-0.2-5.1-0.4c-4.2-0.3-6.6-2.4-6.8-5.9c0-1.3-0.1-2.7-0.1-4c0-0.4,0.2-0.6,0.7-0.6c1.5,0.1,3.1,0.2,4.6,0.3
				c0.5,0,0.7,0.2,0.8,0.7c0,1,0.1,1.9,0.1,2.9s0.8,1.6,1.9,1.6c0.7,0.1,1.4,0.1,2.2,0.2c1.2,0.1,1.8-0.4,1.7-1.4
				c-0.1-1.7-0.2-3.4-0.3-5.1c-3.6-1.3-7.1-2.5-10.7-3.8c-0.8-0.3-1.2-0.8-1.2-1.5c-0.1-3-0.2-6-0.4-9c-0.1-3.6,2-5.3,6-5
				C275.5,202.6,277.1,202.7,278.8,202.9L278.8,202.9z"/>
			<path class="st15" d="M313.1,206.4c0.5,0.1,0.7,0.3,0.8,0.7c0.1,1.3,0.2,2.5,0.4,3.8c0,0.4-0.2,0.6-0.6,0.5
				c-1.7-0.2-3.4-0.4-5.1-0.6c0.7,8.2,1.4,16.4,2.1,24.7c0,0.4-0.2,0.6-0.7,0.5c-1.6-0.2-3.2-0.3-4.8-0.5c-0.5-0.1-0.8-0.3-0.8-0.7
				c-0.6-8.2-1.2-16.4-1.9-24.7c-1.7-0.2-3.4-0.4-5.1-0.6c-0.4-0.1-0.7-0.3-0.7-0.7c-0.1-1.3-0.2-2.5-0.2-3.8c0-0.4,0.2-0.6,0.6-0.5
				C302.4,205.1,307.7,205.7,313.1,206.4L313.1,206.4z"/>
		</g>
	</g>
	<g>
		<g>
			<path class="st13" d="M188.2,47.9c-10.3,1.3-20.5,3.3-30.6,6.1c-14.9,4.1-29.9,10-44.8,17.4l-3.2,1.6v37.2
				c2.2-0.3,4.3-0.5,6.5-0.8V76.3c14.5-7.2,29.1-12.9,43.5-16.9c11.4-3.2,23-5.3,34.6-6.5L188.2,47.9L188.2,47.9z"/>
			<path class="st13" d="M319.8,71.8c-16-7.5-31.9-13.5-47.5-17.6c-9.5-2.5-18.9-4.5-28.3-5.8l-5.7,4.9v0.1
				c10.6,1.2,21.4,3.3,32.1,6.2c15.2,4.1,30.7,9.8,46.3,17.2v32.6c2.1,0.2,4.3,0.5,6.5,0.8V73.4L319.8,71.8L319.8,71.8z"/>
		</g>
		<g>
			<path class="st1" d="M194.4,53.2l-0.3-0.3c-11.6,1.2-23.1,3.3-34.6,6.5c-14.5,4-29.1,9.7-43.5,16.9v33.2c2.2-0.2,4.3-0.5,6.5-0.7
				V79.6c13-6.3,26.1-11.3,39-14.8c10.5-2.9,21.2-5,31.9-6.1L194.4,53.2L194.4,53.2z"/>
			<path class="st1" d="M270.4,59.5c-10.7-2.9-21.5-4.9-32.1-6.2l1.1,5.9c9.6,1.2,19.4,3.1,29.1,5.8c13.6,3.7,27.7,8.8,41.7,15.2
				v28.5c2.1,0.2,4.3,0.5,6.5,0.7V76.8C301.1,69.4,285.6,63.6,270.4,59.5L270.4,59.5z"/>
		</g>
		<polygon class="st12" points="216.3,55.2 205.3,60.3 207.4,49.5 198.5,41.9 210.8,40.3 216.3,30.5 221.9,40.3 234.2,41.9 
			225.3,49.5 227.4,60.3 		"/>
		<polygon class="st14" points="205.3,60.3 216.3,49.6 227.4,60.3 216.3,55.2 		"/>
	</g>
	<g>
		<path class="st1" d="M153,81.6c0.4,0,0.5,0.2,0.2,0.6c-4.1,5.8-8.5,11.8-13,18c-0.2,0.3-0.4,0.4-0.8,0.4c-1,0.1-2,0.1-3,0.2
			c-0.4,0-0.5-0.2-0.3-0.5c3.9-5.3,7.7-10.5,11.4-15.5c-2.1,0-4.2,0-6.3,0.1c-0.3,0-0.4-0.1-0.3-0.4c0.2-0.8,0.5-1.6,0.7-2.4
			c0.1-0.3,0.3-0.4,0.6-0.4L153,81.6L153,81.6z"/>
		<path class="st1" d="M165.8,84.2c-0.1,0.2-0.2,0.4-0.5,0.4c-2.2,0-4.4,0-6.7,0.1c-0.4,1.5-0.8,3-1.1,4.5c1.7,0,3.5-0.1,5.2-0.1
			c0.3,0,0.4,0.1,0.4,0.4c-0.2,0.7-0.3,1.5-0.5,2.2c-0.1,0.2-0.2,0.4-0.5,0.4c-1.8,0.1-3.5,0.1-5.3,0.1c-0.4,1.5-0.8,3.1-1.1,4.6
			c2.3-0.1,4.7-0.2,7-0.3c0.3,0,0.4,0.1,0.4,0.3c-0.2,0.7-0.3,1.5-0.5,2.2c-0.1,0.2-0.2,0.4-0.5,0.4c-3.5,0.2-7,0.3-10.5,0.5
			c-0.3,0-0.4-0.1-0.3-0.3c1.5-5.9,3.1-11.7,4.6-17.6c0.1-0.2,0.2-0.4,0.5-0.4h9.7c0.3,0,0.4,0.1,0.3,0.4
			C166.2,82.7,166,83.4,165.8,84.2L165.8,84.2z"/>
		<path class="st1" d="M183.6,81.6c0.3,0,0.5,0.2,0.5,0.4c-0.8,5.4-1.6,10.9-2.3,16.3c0,0.3-0.3,0.4-0.6,0.4c-0.9,0-1.8,0.1-2.6,0.1
			c-0.4,0-0.6-0.1-0.5-0.4c0.5-3.2,1-6.5,1.5-9.7c-0.1,0-0.1,0-0.2,0c-1.4,3.3-2.9,6.6-4.4,9.8c-0.1,0.3-0.4,0.4-0.7,0.4
			c-0.5,0-0.9,0-1.4,0c-0.3,0-0.5-0.1-0.6-0.4c-0.3-3.3-0.6-6.5-0.9-9.8c-0.1,0-0.1,0-0.2,0c-0.6,3.3-1.3,6.6-1.9,9.9
			c-0.1,0.3-0.3,0.4-0.6,0.5c-0.9,0-1.8,0.1-2.6,0.1c-0.4,0-0.5-0.1-0.5-0.4c1.2-5.6,2.3-11.2,3.5-16.8c0.1-0.3,0.3-0.4,0.6-0.4h3.5
			c0.3,0,0.5,0.1,0.5,0.4c0.3,3.6,0.6,7.2,1,10.8c1.7-3.6,3.3-7.2,4.8-10.8c0.1-0.3,0.3-0.4,0.6-0.4H183.6L183.6,81.6z"/>
		<path class="st1" d="M197.4,84c0,0.2-0.1,0.4-0.4,0.4c-2.2,0-4.4,0-6.7,0c-0.2,1.4-0.3,2.8-0.5,4.2c1.7,0,3.5,0,5.2,0
			c0.3,0,0.4,0.1,0.4,0.4c-0.1,0.7-0.1,1.4-0.2,2.1c0,0.2-0.2,0.4-0.5,0.4c-1.8,0-3.5,0-5.3,0.1c-0.2,1.4-0.3,2.9-0.5,4.3
			c2.3,0,4.7-0.1,7-0.1c0.3,0,0.4,0.1,0.4,0.3c-0.1,0.7-0.1,1.4-0.2,2.1c0,0.2-0.1,0.3-0.5,0.3c-3.5,0.1-7,0.1-10.5,0.2
			c-0.3,0-0.4-0.1-0.4-0.3c0.7-5.5,1.4-10.9,2.1-16.4c0-0.2,0.2-0.3,0.4-0.3h9.7c0.3,0,0.4,0.1,0.4,0.3
			C197.6,82.6,197.5,83.3,197.4,84L197.4,84z"/>
		<path class="st1" d="M218.1,84c0,0.2-0.1,0.4-0.4,0.4c-2.2,0-4.4,0-6.7,0c0,1.4,0,2.8-0.1,4.2c1.7,0,3.5,0,5.2,0
			c0.3,0,0.4,0.1,0.4,0.4c0,0.7,0,1.4,0,2.1c0,0.2-0.2,0.4-0.4,0.4c-1.8,0-3.5,0-5.3,0c0,1.4,0,2.8-0.1,4.2c2.3,0,4.7,0,7,0
			c0.3,0,0.4,0.1,0.5,0.3c0,0.7,0,1.4,0.1,2.1c0,0.2-0.1,0.3-0.4,0.3c-3.5,0-7,0-10.5,0c-0.3,0-0.4-0.1-0.4-0.3
			c0.1-5.4,0.3-10.7,0.5-16.1c0-0.2,0.2-0.3,0.4-0.3h9.7c0.3,0,0.4,0.1,0.4,0.3C218.1,82.6,218.1,83.3,218.1,84L218.1,84z"/>
		<path class="st1" d="M220.9,81.9c0-0.2,0.1-0.3,0.4-0.3h6.3c2.5,0,3.9,1.1,4.1,3.1c0.3,3.6,0.6,7.2,1,10.8c0.2,2-1.1,3-3.8,3
			c-2.3,0-4.6-0.1-6.8-0.1c-0.3,0-0.5-0.1-0.5-0.3C221.3,92.7,221.1,87.3,220.9,81.9z M227.8,95.7c0.7,0,1.1-0.3,1.1-0.8
			c-0.2-3.2-0.5-6.4-0.7-9.6c0-0.6-0.4-0.9-1.1-0.9c-0.8,0-1.6,0-2.4,0c0.2,3.8,0.4,7.5,0.6,11.3C226.1,95.6,226.9,95.7,227.8,95.7
			L227.8,95.7z"/>
		<path class="st1" d="M237.5,81.6c0.3,0,0.4,0.1,0.5,0.3c0.7,5.5,1.3,10.9,2,16.4c0,0.2-0.1,0.3-0.4,0.3c-1,0-2,0-3-0.1
			c-0.3,0-0.5-0.1-0.5-0.3c-0.6-5.4-1.1-10.9-1.7-16.3c0-0.2,0.1-0.3,0.4-0.3L237.5,81.6L237.5,81.6z"/>
		<path class="st1" d="M250.5,81.6c0.3,0,0.4,0.1,0.5,0.3c0.1,0.7,0.3,1.4,0.4,2.2c0,0.2-0.1,0.3-0.4,0.3c-1,0-2.1,0-3.1,0
			c0.8,4.7,1.6,9.4,2.3,14.1c0,0.2-0.1,0.3-0.4,0.3c-1,0-2-0.1-3-0.1c-0.3,0-0.5-0.1-0.5-0.4c-0.7-4.7-1.4-9.3-2.1-14
			c-1,0-2.1,0-3.1,0c-0.3,0-0.4-0.1-0.5-0.3c-0.1-0.7-0.2-1.4-0.3-2.1c0-0.2,0.1-0.3,0.4-0.3H250.5L250.5,81.6z"/>
		<path class="st1" d="M256.6,81.6c0.3,0,0.5,0.1,0.5,0.3c1.2,5.7,2.3,11.3,3.5,17c0,0.2-0.1,0.3-0.4,0.3c-1,0-2-0.1-3-0.1
			c-0.3,0-0.5-0.2-0.5-0.4c-1.1-5.6-2.1-11.2-3.2-16.8c0-0.2,0.1-0.3,0.4-0.3L256.6,81.6L256.6,81.6z"/>
		<path class="st1" d="M260.8,84.8c-0.5-2.1,0.6-3.2,3.1-3.2h2.9c2.5,0,4.1,1.1,4.6,3.3c1,3.9,2,7.8,3.1,11.7
			c0.6,2.2-0.6,3.2-3.2,3.1c-1.1-0.1-2.1-0.1-3.2-0.2c-2.7-0.1-4.4-1.3-4.8-3.4C262.4,92.4,261.6,88.6,260.8,84.8L260.8,84.8z
			 M269.8,96.8c0.7,0,1-0.2,0.9-0.9c-0.9-3.5-1.7-7-2.6-10.5c-0.1-0.6-0.6-0.9-1.3-0.9c-0.5,0-1,0-1.5,0c-0.7,0-1,0.3-0.9,0.9
			c0.8,3.5,1.6,6.9,2.4,10.4c0.1,0.6,0.6,0.9,1.3,0.9C268.7,96.7,269.3,96.7,269.8,96.8L269.8,96.8z"/>
		<path class="st1" d="M284.4,81.6c0.3,0,0.5,0.1,0.5,0.4c1.9,6.1,3.8,12.3,5.7,18.4c0.1,0.2,0,0.4-0.3,0.4
			c-0.9-0.1-1.9-0.1-2.8-0.2c-0.3,0-0.5-0.1-0.6-0.3c-2.5-3.5-4.9-6.9-7.2-10.2h-0.1c0.9,3.3,1.9,6.6,2.8,9.9c0.1,0.2,0,0.4-0.4,0.3
			c-1-0.1-2-0.1-3-0.2c-0.3,0-0.5-0.2-0.6-0.4c-1.6-5.9-3.2-11.8-4.8-17.8c-0.1-0.2,0.1-0.4,0.3-0.4h2.6c0.2,0,0.4,0.1,0.6,0.3
			c2.3,3.3,4.6,6.7,7,10.1c0.1,0,0.1,0,0.2,0c-1-3.3-2-6.7-3-10c-0.1-0.2,0-0.4,0.3-0.4L284.4,81.6L284.4,81.6z"/>
	</g>
	<g>
		<g>
			<path class="st0" d="M593,163.9c1.1-3,2.2-6,3.3-9c0.6-1.6,0.2-2.4-1.3-2.4c-0.3,0-0.7,0-1,0.1c-2.6,0.5-5.2,1-7.8,1.5
				c-2,5-3.9,10-5.9,15.1c2.7-0.6,5.4-1.1,8.1-1.6C590.7,167.1,592.3,165.9,593,163.9L593,163.9z"/>
			<path class="st0" d="M602,139.6c1.1-2.9,2.2-5.8,3.3-8.7c0.6-1.5,0.2-2.4-1.2-2.4c-0.3,0-0.6,0-0.9,0.1c-2.4,0.4-4.9,0.8-7.3,1.3
				c-2,4.8-3.9,9.6-5.9,14.5c2.5-0.5,5.1-0.9,7.6-1.4C599.8,142.6,601.4,141.4,602,139.6L602,139.6z"/>
			<path class="st0" d="M688.2,152.2c1.5-10.1,3-20.2,4.5-30.3c0.2-1.7-0.6-2.6-2.5-2.6c-0.1,0-0.2,0-0.3,0c-2.5,0.1-5,0.3-7.5,0.4
				c-2.2,11.9-4.3,23.8-6.5,35.9c2.8-0.2,5.5-0.4,8.3-0.6C686.6,155,688,154,688.2,152.2L688.2,152.2z"/>
			<path class="st0" d="M733.4,118.2L733.4,118.2c-2.5,0-5,0-7.5,0.1c-0.6,11.8-1.2,23.5-1.7,35.3c2.8,0,5.5-0.1,8.3-0.1
				c2.3,0,3.6-0.9,3.6-2.6c0.2-10,0.3-19.9,0.5-29.9C736.6,119.1,735.5,118.2,733.4,118.2L733.4,118.2z"/>
		</g>
		<path d="M910.9,248.7l17.8-19.5l-18.2-3.2c-6.1-1.1-20.8-3.6-34.7-5.7l-3.7-18.1c7.1,0.9,19.8,2.7,30.6,4.3l14.4,2.2l7.8-11.1
			l-6.2-14.6l0,0l-8.8-20.7L903,146h11l-11.7-26.9l-5.5-1.2c-1.3-0.3-2.7-0.6-4.1-0.8l0,0l0,0c-1.9-0.3-3.8-0.7-5.8-1
			c0,0-13.8-2.3-20.9-3.2c-0.2,0-7.7-1.1-11.3-1.5V67.3l-6.1-2.9l-3.4-1.6c-16.6-7.9-33.3-14.1-49.6-18.4
			c-6.3-1.7-12.6-3.1-18.9-4.3l-20.9-3.6l-6.2-0.8l-2.8-5L736.3,12l-10.5,18.6l-2.8,5l-6.2,0.8l-21.5,3c-7.1,1.3-14.2,2.9-21.2,4.8
			c-15.7,4.3-31.5,10.5-47.1,18.3l-3.2,1.6l-5.9,2.9v44.5c-18.1,2.1-37.5,7-37.5,7l-2.6,6c0,0,0,0.1-0.1,0.1
			c-6.7,15-13.2,30.3-19.4,45.7l-11.5,27.1l8.1,11.5l13.7-2.4c16.4-2.4,37.5-5,37.5-5l-3.9,19.6c-13.9,2.1-52.9,8.8-52.9,8.8
			s15.7,16.8,17.8,18.6c-0.5,0.5-1.1,1-1.6,1.4c-3.3,2.9-29.8,31.6-29.8,31.6l31.1-5.5c22.3-3.9,45.1-7.3,67.7-10l24.1,35.3l1.6,2.4
			l2.7,1.3l75.8,37l76.4-37l2.7-1.3l1.6-2.4l24.1-35.3c22.6,2.8,45.4,6.1,67.7,10l31.1,5.5L910.9,248.7L910.9,248.7z"/>
		<path class="st1" d="M736.3,12l10.5,18.6l2.8,5l6.2,0.8l20.9,3.6c6.3,1.2,12.7,2.6,18.9,4.3c16.3,4.4,33,10.6,49.6,18.4l3.4,1.6
			l6.1,2.9v44.1c22.4,2.7,47.6,7.8,47.6,7.8L914,146h-11l6.9,16.2l8.8,20.7l0,0l6.2,14.6l-7.8,11.1l-14.4-2.2
			c-10.9-1.6-23.5-3.3-30.6-4.3l2.7,19.1l52.9,8.8l-16.8,18.6l31.4,33.1l-31.1-5.5c-22.3-3.9-45.1-7.3-67.7-10l-24.1,35.3l-1.6,2.4
			l-2.7,1.3l-76.4,37l-75.8-37l-2.7-1.3l-1.6-2.4l-24.1-35.3c-22.6,2.8-45.4,6.1-67.7,10l-31.1,5.5c0,0,26.5-28.7,29.8-31.6
			c0.5-0.5,1.1-1,1.6-1.4l-16.8-18.6l52.9-8.8l2.9-19.6c0,0-21.2,2.7-37.5,5l-13.7,2.4l-8.1-11.5l11.5-27.1
			c6.2-15.3,12.7-30.6,19.4-45.7c0,0,0-0.1,0.1-0.1l2.6-6c0,0,19.4-4.8,37.5-7V67.1l5.9-2.9l3.2-1.6c15.6-7.8,31.4-14,47.1-18.3
			c7-1.9,14.1-3.5,21.2-4.8l21.5-3l6.2-0.8l2.8-5L736.3,12 M736.4,0L731,9.4L720.6,28l-1.4,2.4l-3.2,0.4l0,0l0,0l-21.5,3h-0.1h-0.1
			c-7.4,1.3-14.7,3-21.8,4.9c-16,4.4-32.3,10.7-48.2,18.7L621,59l-5.9,3l-3.2,1.6v43c-16.6,2.3-32.4,6.3-33.1,6.4l-2.9,0.7l-1.1,2.6
			l-2.5,5.8c0,0.1-0.1,0.1-0.1,0.2c-6.6,14.8-13.2,30.2-19.5,45.8l-11.5,27.1l-1.1,2.7l1.7,2.4l8.1,11.5l2.2,3.1l3.9-0.7l13.6-2.4
			c10.1-1.4,22.1-3,29.7-4c-0.5,4-1,4.2-1.5,8.2c-13,2-26,4.1-31.3,5l-18.2,3.2l-9,1.7l19.7,22.2c-7.2,7.3-25.4,27.1-27.7,29.6
			L520,290.2l16.8-3l31.1-5.5c20.9-3.7,42.3-6.9,63.6-9.5l22.1,32.3l1.6,2.4l0.9,1.2l1.4,0.7l2.7,1.3l75.8,37l2.8,1.4l2.8-1.4
			l76.4-37l2.7-1.3l1.4-0.7l0.9-1.2l1.6-2.4l22.1-32.3c21.3,2.7,42.7,5.9,63.6,9.5l31.1,5.5l17.2,3L946.8,278l-28-29.5l20.1-22.2
			l-58.7-9.9l-1.3-7.7c6.8,0.9,15.3,2.1,22.9,3.2l14.4,2.2l3.9,0.6l2.1-3.1l7.8-11.1l1.7-2.4l-1.1-2.7l-6.2-14.6l-8.8-20.7l-3.6-8.5
			h2.1h8.9l-3.3-7.7L907.9,117l-1.2-2.7l-3.1-0.6c-0.2-0.1-21.9-4.4-42.8-7.2V63.8l-3.3-1.5l-6.1-2.9l-3.4-1.6
			c-17-8-34-14.3-50.7-18.8c-6.4-1.7-12.9-3.2-19.4-4.4l0,0l0,0L757,31h-0.1h-0.1l-3.2-0.4l-1.4-2.4L741.6,9.4L736.4,0L736.4,0
			L736.4,0z"/>
		<polygon class="st2" points="936.3,281 936.3,281.6 937,281.7 		"/>
		<polygon class="st2" points="536.3,281 536.3,281.6 535.7,281.7 		"/>
		<path class="st3" d="M915.3,266.2l-18.5-17.8l13.2-11.5c-7.2-1.2-27.7-4.6-43.1-6.9l-3.9-29.6c0,0-51.3-8.8-124.2-8.4
			c-72.9-0.5-124.2,8.4-124.2,8.4l-3.9,29.6c-15.4,2.3-35.9,5.7-43.1,6.9l13.2,11.5l-18.5,17.8c23.3-4.1,46.7-7.5,70.2-10.4
			c-7.7-4.7-23.1-8.5-23.1-8.5s52.2-9.4,129.4-8.9c77.2-0.5,129.4,8.9,129.4,8.9s-15.4,3.8-23.1,8.5
			C868.6,258.7,892,262.2,915.3,266.2L915.3,266.2z"/>
		<g>
			
				<linearGradient id="SVGID_00000148624021142077968780000009066299686728082581_" gradientUnits="userSpaceOnUse" x1="590.3661" y1="-143.1246" x2="591.5962" y2="-94.0245" gradientTransform="matrix(1 0 0 1 0 264.9606)">
				<stop  offset="0" style="stop-color:#FFFFFF"/>
				<stop  offset="1" style="stop-color:#CAE6FF"/>
			</linearGradient>
			<path style="fill:url(#SVGID_00000148624021142077968780000009066299686728082581_);" d="M612.3,144.8c-0.9,2.6-3.9,5-7.1,5.9
				c0,0.1,0,0.1,0,0.1c2.9-0.1,4.5,1.6,3.6,4.2c-1.5,4.4-3.1,8.9-4.6,13.4c-2.3,6.9-8.2,11.5-16.8,13.2c-7.2,1.5-14.5,3-21.7,4.7
				c-0.9,0.2-1.3-0.1-1-0.9c8-20.2,16-39.1,24-57c0.3-0.8,1-1.2,1.8-1.4c6.3-1.2,12.5-2.4,18.8-3.4c7.3-1.2,10.1,1.7,7.8,8.2
				C615.3,136.2,613.8,140.5,612.3,144.8L612.3,144.8z M605.4,135.5c0.7-1.8,0-2.6-2.1-2.3c-2.4,0.4-4.9,0.8-7.3,1.3
				c-2,4.8-3.9,9.6-5.9,14.5c2.5-0.5,5.1-0.9,7.6-1.4c2.2-0.4,3.7-1.6,4.4-3.4C603.1,141.3,604.3,138.4,605.4,135.5L605.4,135.5z
				 M596.3,159.5c0.7-1.9,0-2.7-2.3-2.3c-2.6,0.5-5.2,1-7.8,1.5c-2,5-3.9,10-5.9,15.1c2.7-0.6,5.4-1.1,8.1-1.6
				c2.3-0.4,3.9-1.7,4.6-3.7C594.1,165.5,595.2,162.5,596.3,159.5L596.3,159.5z"/>
			
				<linearGradient id="SVGID_00000062899445491553578460000017100670808706909885_" gradientUnits="userSpaceOnUse" x1="638.3574" y1="-144.2418" x2="639.5873" y2="-95.1418" gradientTransform="matrix(1 0 0 1 0 264.9606)">
				<stop  offset="0" style="stop-color:#FFFFFF"/>
				<stop  offset="1" style="stop-color:#CAE6FF"/>
			</linearGradient>
			<path style="fill:url(#SVGID_00000062899445491553578460000017100670808706909885_);" d="M661.1,117.4c0.9-0.1,1.4,0.5,1.2,1.2
				c-3.5,14.2-7,28.6-10.5,43.3c-1.5,6.5-7,10.5-15.6,11.6c-3.4,0.5-6.8,0.9-10.2,1.4c-8.6,1.3-12-1.6-9.8-8.4
				c4.9-15.3,9.8-30.2,14.6-44.6c0.2-0.8,1.2-1.4,2-1.6c2.5-0.3,5-0.6,7.5-0.9c0.9-0.1,1.4,0.4,1.2,1.2
				c-4.2,13.7-8.4,27.8-12.7,42.1c-0.6,1.9,0.4,2.7,2.7,2.4c1.5-0.2,3.1-0.4,4.7-0.6c2.3-0.3,3.8-1.4,4.3-3.2
				c3.8-14.2,7.6-28.1,11.4-41.7c0.2-0.7,1.1-1.4,2-1.5C656.3,117.8,658.7,117.6,661.1,117.4L661.1,117.4z"/>
			
				<linearGradient id="SVGID_00000114756330784256767630000002806588313329491861_" gradientUnits="userSpaceOnUse" x1="682.2048" y1="-145.2787" x2="683.4348" y2="-96.1687" gradientTransform="matrix(1 0 0 1 0 264.9606)">
				<stop  offset="0" style="stop-color:#FFFFFF"/>
				<stop  offset="1" style="stop-color:#CAE6FF"/>
			</linearGradient>
			<path style="fill:url(#SVGID_00000114756330784256767630000002806588313329491861_);" d="M673.1,117.5c0.1-0.7,0.6-1.1,1.5-1.2
				c6.3-0.4,12.6-0.8,18.9-1.1c7.4-0.3,10.9,2.9,10.2,9.1c-1.3,11.2-2.6,22.5-4,33.8c-0.7,6.2-5.7,9.8-14.4,10.4
				c-7.4,0.5-14.7,1.1-22.1,1.8c-1,0.1-1.4-0.2-1.2-0.9C665.8,151.8,669.5,134.5,673.1,117.5L673.1,117.5z M684.2,159.8
				c2.3-0.2,3.7-1.1,4-2.9c1.5-10.1,3-20.2,4.5-30.3c0.3-1.8-0.7-2.7-2.8-2.6c-2.5,0.1-5,0.3-7.5,0.4c-2.2,11.9-4.3,23.8-6.5,35.9
				C678.7,160.2,681.5,160,684.2,159.8L684.2,159.8z"/>
			
				<linearGradient id="SVGID_00000046321509382273977300000007657403903059876237_" gradientUnits="userSpaceOnUse" x1="728.5319" y1="-146.3984" x2="729.762" y2="-97.2084" gradientTransform="matrix(1 0 0 1 0 264.9606)">
				<stop  offset="0" style="stop-color:#FFFFFF"/>
				<stop  offset="1" style="stop-color:#CAE6FF"/>
			</linearGradient>
			<path style="fill:url(#SVGID_00000046321509382273977300000007657403903059876237_);" d="M715.5,115.5c0-0.7,0.5-1.1,1.3-1.1
				c6.3-0.2,12.6-0.2,18.9-0.3c7.4,0,11.4,3.4,11.5,9.6c0.2,11.2,0.4,22.4,0.6,33.7c0.1,6.2-4.4,9.4-13.1,9.4
				c-7.4,0-14.8,0.1-22.1,0.4c-1,0-1.5-0.3-1.4-1C712.7,149.2,714.1,132.3,715.5,115.5L715.5,115.5z M732.4,158.1
				c2.3,0,3.6-0.9,3.6-2.6c0.2-10,0.3-19.9,0.5-29.9c0-1.8-1.1-2.7-3.2-2.7c-2.5,0-5,0-7.5,0.1c-0.6,11.8-1.2,23.5-1.7,35.3
				C726.9,158.1,729.7,158.1,732.4,158.1z"/>
			
				<linearGradient id="SVGID_00000009560494731830950000000003636945531893350291_" gradientUnits="userSpaceOnUse" x1="773.9855" y1="-147.4603" x2="775.2155" y2="-98.2603" gradientTransform="matrix(1 0 0 1 0 264.9606)">
				<stop  offset="0" style="stop-color:#FFFFFF"/>
				<stop  offset="1" style="stop-color:#CAE6FF"/>
			</linearGradient>
			<path style="fill:url(#SVGID_00000009560494731830950000000003636945531893350291_);" d="M792.4,115.4c1.2,0.1,1.8,0.7,1.5,1.6
				c-3.2,9.7-6.9,19.4-11,29c0.8,7,1.7,13.9,2.5,20.9c0.1,0.9-0.5,1.3-1.7,1.2c-3-0.2-5.9-0.4-8.8-0.5c-1.2-0.1-1.9-0.6-2-1.4
				c-0.6-6.9-1.2-13.9-1.8-20.8c-6.1-10.1-11.8-20-17-29.8c-0.5-0.9,0-1.5,1.2-1.5c2.6,0,5.3,0.1,7.9,0.1c1,0,1.5,0.4,1.9,1.1
				c3.4,6.4,7,12.8,10.8,19.3c2.5-6.2,4.8-12.5,6.9-18.8c0.2-0.7,0.7-1,1.7-1C787.1,115.2,789.7,115.3,792.4,115.4L792.4,115.4z"/>
			
				<linearGradient id="SVGID_00000067224231645085821590000008502264500798034059_" gradientUnits="userSpaceOnUse" x1="819.3453" y1="-148.5215" x2="820.5753" y2="-99.3315" gradientTransform="matrix(1 0 0 1 0 264.9606)">
				<stop  offset="0" style="stop-color:#FFFFFF"/>
				<stop  offset="1" style="stop-color:#CAE6FF"/>
			</linearGradient>
			<path style="fill:url(#SVGID_00000067224231645085821590000008502264500798034059_);" d="M835.9,126.6c0.2,0.7-0.2,1.1-1,1
				c-6.7-0.7-13.4-1.3-20-1.9c1,4.6,2,9.2,3,13.8c5.3,0.5,10.5,1,15.8,1.6c0.8,0.1,1.5,0.6,1.6,1.3c0.6,2.3,1.2,4.7,1.8,7
				c0.2,0.8-0.2,1.1-1.1,1c-5.4-0.6-10.8-1.2-16.2-1.7c1.6,7.4,3.2,14.8,4.8,22.2c0.2,0.7-0.3,1.1-1.2,0.9c-3.2-0.4-6.4-0.7-9.5-1.1
				c-1-0.1-1.5-0.6-1.7-1.3c-3.3-17.7-6.5-35.2-9.8-52.4c-0.1-0.7,0.2-1.1,1.1-1c9.7,0.6,19.3,1.4,29,2.4c0.8,0.1,1.4,0.5,1.6,1.2
				C834.6,122,835.2,124.3,835.9,126.6z"/>
			
				<linearGradient id="SVGID_00000065753047665381210590000000605993626666715009_" gradientUnits="userSpaceOnUse" x1="858.1404" y1="-149.4194" x2="859.3704" y2="-100.2193" gradientTransform="matrix(1 0 0 1 0 264.9606)">
				<stop  offset="0" style="stop-color:#FFFFFF"/>
				<stop  offset="1" style="stop-color:#CAE6FF"/>
			</linearGradient>
			<path style="fill:url(#SVGID_00000065753047665381210590000000605993626666715009_);" d="M853.8,121c0.8,0.1,1.4,0.6,1.6,1.3
				c6,17.9,12,36.5,18,55.9c0.2,0.8-0.2,1.1-1.1,0.9c-3.2-0.6-6.3-1.1-9.5-1.7c-1-0.2-1.6-0.7-1.8-1.4c-5.5-19-10.9-37.3-16.4-55.1
				c-0.2-0.7,0-1.1,0.9-1C848.3,120.3,851.1,120.6,853.8,121L853.8,121z"/>
			
				<linearGradient id="SVGID_00000158006731731623535840000000662740775612281523_" gradientUnits="userSpaceOnUse" x1="885.2805" y1="-150.0694" x2="886.5104" y2="-100.8594" gradientTransform="matrix(1 0 0 1 0 264.9606)">
				<stop  offset="0" style="stop-color:#FFFFFF"/>
				<stop  offset="1" style="stop-color:#CAE6FF"/>
			</linearGradient>
			<path style="fill:url(#SVGID_00000158006731731623535840000000662740775612281523_);" d="M894.2,127.9c0.9,0.2,1.4,0.7,1.8,1.4
				c1,2.4,2.1,4.8,3.1,7.3c0.3,0.7,0.1,1.1-0.8,0.9c-3.1-0.7-6.2-1.3-9.3-1.9c6.4,15.9,12.7,32.4,19,49.9c0.3,0.9,0,1.2-1,0.9
				c-3.1-0.7-6.2-1.4-9.4-2.1c-0.9-0.2-1.6-0.7-1.9-1.6c-5.9-17.1-11.8-33.4-17.7-49.1c-3.1-0.5-6.2-1.1-9.3-1.5
				c-0.8-0.1-1.4-0.6-1.7-1.3c-0.8-2.4-1.7-4.8-2.5-7.1c-0.2-0.7,0.1-1.1,0.8-0.9C875,124.2,884.6,125.9,894.2,127.9L894.2,127.9z"
				/>
		</g>
		<path class="st3" d="M558,197.9c29.1-6.3,58.7-11,88.5-14.2s59.8-4.8,89.9-4.9c30-0.1,60.1,1.4,89.9,4.6
			c29.8,3.2,59.4,7.9,88.4,14.5c-29.5-4.9-59-8.7-88.8-11.2c-29.7-2.5-59.6-3.8-89.5-3.7s-59.7,1.4-89.5,4
			C617.2,189.5,587.5,193.3,558,197.9L558,197.9z"/>
		<g>
			<path class="st1" d="M671.7,81.6c0.3,0,0.4,0.1,0.3,0.4c-0.2,0.8-0.4,1.5-0.6,2.3c-0.1,0.2-0.2,0.4-0.5,0.4c-1,0-2.1,0-3.1,0
				c-1.5,5.1-2.9,10.2-4.4,15.3c-0.1,0.3-0.2,0.4-0.6,0.4c-1,0.1-2,0.1-3,0.2c-0.3,0-0.4-0.1-0.3-0.3c1.5-5.2,3.1-10.3,4.6-15.5
				c-1,0-2.1,0-3.1,0c-0.3,0-0.4-0.1-0.3-0.4c0.2-0.8,0.5-1.6,0.7-2.4c0.1-0.2,0.3-0.4,0.5-0.4H671.7L671.7,81.6z"/>
			<path class="st1" d="M684.2,84.2c0,0.2-0.2,0.4-0.5,0.4c-2.2,0-4.4,0-6.7,0.1c-0.4,1.5-0.8,3-1.2,4.6c1.7,0,3.5-0.1,5.2-0.1
				c0.3,0,0.4,0.1,0.3,0.4c-0.2,0.7-0.3,1.5-0.5,2.2c-0.1,0.2-0.2,0.4-0.5,0.4c-1.8,0.1-3.5,0.1-5.3,0.2c-0.4,1.5-0.8,3.1-1.2,4.6
				c2.3-0.1,4.7-0.2,7-0.3c0.3,0,0.4,0.1,0.4,0.3c-0.2,0.7-0.3,1.5-0.5,2.2c0,0.2-0.2,0.4-0.5,0.4c-3.5,0.2-7,0.3-10.5,0.5
				c-0.3,0-0.4-0.1-0.3-0.3c1.6-5.9,3.1-11.8,4.7-17.7c0.1-0.2,0.2-0.4,0.5-0.4h9.7c0.3,0,0.4,0.1,0.3,0.4
				C684.6,82.7,684.4,83.4,684.2,84.2L684.2,84.2z"/>
			<path class="st1" d="M693.9,99c-0.3,0-0.4-0.1-0.4-0.3c-0.1-1.1-0.2-2.1-0.2-3.2c-1.7,0-3.3,0.1-5,0.1c-0.5,1.1-0.9,2.2-1.4,3.2
				c-0.1,0.2-0.3,0.3-0.5,0.3c-1,0-2,0.1-3,0.1c-0.3,0-0.4-0.1-0.3-0.4c2.8-5.8,5.5-11.5,8.1-17.1c0.1-0.2,0.3-0.3,0.5-0.3h3.7
				c0.2,0,0.4,0.1,0.4,0.3c0.5,5.6,1,11.1,1.7,16.6c0,0.2-0.1,0.4-0.5,0.4C695.9,98.9,694.9,98.9,693.9,99L693.9,99z M692.7,85.4
				c-1,2.6-2.1,5.1-3.2,7.7c1.2,0,2.4-0.1,3.5-0.1C692.9,90.5,692.8,88,692.7,85.4z"/>
			<path class="st1" d="M716.8,81.6c0.3,0,0.5,0.2,0.5,0.4c-0.4,5.3-0.8,10.7-1.2,16c0,0.3-0.2,0.4-0.6,0.4c-0.9,0-1.8,0-2.7,0
				c-0.4,0-0.6-0.1-0.5-0.4c0.3-3.2,0.6-6.3,0.9-9.5c-0.1,0-0.1,0-0.2,0c-1.2,3.2-2.5,6.4-3.7,9.6c-0.1,0.3-0.3,0.4-0.7,0.4
				c-0.5,0-0.9,0-1.4,0c-0.3,0-0.5-0.1-0.6-0.4c-0.5-3.2-1.1-6.4-1.5-9.6c-0.1,0-0.1,0-0.2,0c-0.4,3.2-0.9,6.4-1.3,9.6
				c0,0.3-0.3,0.4-0.6,0.4c-0.9,0-1.8,0-2.6,0.1c-0.4,0-0.5-0.1-0.5-0.4c0.8-5.4,1.6-10.9,2.4-16.4c0-0.3,0.2-0.4,0.6-0.4h3.5
				c0.3,0,0.5,0.1,0.5,0.4c0.5,3.6,1.1,7.1,1.7,10.6c1.4-3.6,2.8-7.1,4.1-10.6c0.1-0.2,0.3-0.4,0.6-0.4L716.8,81.6L716.8,81.6z"/>
			<path class="st1" d="M737.8,84c0,0.2-0.1,0.4-0.4,0.4c-2.2,0-4.4,0-6.7,0c0,1.4,0,2.8,0,4.2c1.7,0,3.5,0,5.2,0
				c0.3,0,0.4,0.1,0.4,0.4c0,0.7,0,1.4,0,2.1c0,0.2-0.2,0.4-0.4,0.4c-1.8,0-3.5,0-5.3,0c0,1.4,0,2.8,0,4.2c2.3,0,4.7,0,7,0
				c0.3,0,0.5,0.1,0.5,0.3c0,0.7,0,1.4,0,2.1c0,0.2-0.1,0.3-0.5,0.3c-3.5,0-7,0-10.5,0c-0.3,0-0.4-0.1-0.4-0.3
				c0.2-5.4,0.3-10.7,0.5-16.1c0-0.2,0.2-0.3,0.4-0.3h9.7c0.3,0,0.4,0.1,0.4,0.3C737.8,82.6,737.8,83.3,737.8,84L737.8,84z"/>
			<path class="st1" d="M740.5,81.9c0-0.2,0.1-0.3,0.4-0.3h6.3c2.5,0,3.9,1.1,4.1,3.1c0.3,3.6,0.6,7.2,1,10.8c0.2,2-1.2,3-3.8,3
				c-2.3,0-4.6-0.1-6.8-0.1c-0.3,0-0.5-0.1-0.5-0.3C740.9,92.7,740.7,87.3,740.5,81.9z M747.4,95.7c0.7,0,1.1-0.3,1.1-0.8
				c-0.2-3.2-0.5-6.4-0.7-9.6c0-0.6-0.4-0.9-1.1-0.9c-0.8,0-1.6,0-2.5,0c0.2,3.8,0.4,7.5,0.6,11.3C745.7,95.6,746.6,95.7,747.4,95.7
				L747.4,95.7z"/>
			<path class="st1" d="M757.2,81.6c0.3,0,0.4,0.1,0.5,0.3c0.7,5.5,1.3,10.9,2,16.4c0,0.2-0.1,0.3-0.4,0.3c-1,0-2,0-3-0.1
				c-0.3,0-0.5-0.1-0.5-0.3c-0.6-5.4-1.1-10.9-1.7-16.3c0-0.2,0.1-0.3,0.4-0.3C754.5,81.6,757.2,81.6,757.2,81.6z"/>
			<path class="st1" d="M770.2,81.6c0.3,0,0.4,0.1,0.5,0.3c0.1,0.7,0.3,1.4,0.4,2.2c0,0.2-0.1,0.3-0.4,0.3c-1,0-2.1,0-3.1,0
				c0.8,4.7,1.5,9.4,2.3,14.1c0,0.2-0.1,0.3-0.4,0.3c-1,0-2-0.1-3-0.1c-0.3,0-0.5-0.1-0.5-0.4c-0.7-4.7-1.4-9.3-2.1-14
				c-1,0-2.1,0-3.1,0c-0.3,0-0.4-0.1-0.5-0.3c-0.1-0.7-0.2-1.4-0.3-2.1c0-0.2,0.1-0.3,0.4-0.3H770.2L770.2,81.6z"/>
			<path class="st1" d="M776.2,81.6c0.3,0,0.5,0.1,0.5,0.3c1.2,5.7,2.3,11.3,3.5,17c0,0.2-0.1,0.3-0.4,0.3c-1,0-2-0.1-3-0.1
				c-0.3,0-0.5-0.2-0.5-0.4c-1.1-5.6-2.2-11.2-3.2-16.8c0-0.2,0.1-0.3,0.3-0.3L776.2,81.6L776.2,81.6z"/>
			<path class="st1" d="M780.4,84.8c-0.5-2.1,0.6-3.2,3.1-3.2h2.9c2.5,0,4.1,1.1,4.6,3.3c1,3.9,2,7.8,3.1,11.7
				c0.6,2.2-0.6,3.2-3.2,3.1c-1.1-0.1-2.1-0.1-3.2-0.2c-2.7-0.1-4.3-1.3-4.8-3.4C782.1,92.4,781.2,88.6,780.4,84.8L780.4,84.8z
				 M789.5,96.8c0.7,0,1-0.2,0.9-0.9c-0.9-3.5-1.7-7-2.6-10.5c-0.2-0.6-0.6-0.9-1.3-0.9c-0.5,0-1,0-1.5,0c-0.7,0-1,0.3-0.9,0.9
				c0.8,3.5,1.6,6.9,2.4,10.4c0.1,0.6,0.6,0.9,1.3,0.9C788.4,96.7,788.9,96.7,789.5,96.8L789.5,96.8z"/>
			<path class="st1" d="M804,81.6c0.3,0,0.5,0.1,0.5,0.4c1.9,6.1,3.8,12.3,5.7,18.4c0.1,0.2,0,0.4-0.3,0.4c-0.9-0.1-1.9-0.1-2.8-0.2
				c-0.3,0-0.5-0.1-0.6-0.3c-2.5-3.5-4.8-6.9-7.2-10.2h-0.1c0.9,3.3,1.9,6.6,2.8,9.9c0.1,0.2,0,0.4-0.3,0.3c-1-0.1-2-0.1-3-0.2
				c-0.3,0-0.5-0.2-0.6-0.4c-1.6-5.9-3.2-11.8-4.8-17.8c-0.1-0.2,0.1-0.4,0.3-0.4h2.6c0.2,0,0.4,0.1,0.6,0.3c2.3,3.3,4.6,6.7,7,10.1
				c0.1,0,0.1,0,0.2,0c-1-3.3-2-6.7-3-10c-0.1-0.2,0-0.4,0.3-0.4L804,81.6L804,81.6z"/>
		</g>
		<g>
			<path class="st13" d="M714.3,264.1c-0.3,0.1-0.3,0.3-0.3,0.6c0.1,0.7,0.2,1.4,0.2,2.1c0,0.3,0.2,0.5,0.6,0.5c1,0,1.9,0,2.9,0
				c0-0.3-0.1-0.7-0.1-1s0.2-0.5,0.5-0.5c0.9,0,1.7,0,2.6,0c0.3,0,0.5,0.2,0.6,0.5c0.1,1.3,0.2,2.5,0.3,3.8c0,0.3-0.2,0.5-0.5,0.5
				c-3.2,0-6.4,0-9.5,0c-0.3,0-0.5-0.2-0.6-0.5c-0.3-2.4-0.6-4.8-0.8-7.1c0-0.5,0.1-0.7,0.6-0.9c2.1-1.1,4.2-2.2,6.3-3.3
				c-0.1-1.2-0.2-2.4-0.3-3.7c-0.1-0.6-0.5-1-1.2-0.9c-0.5,0-0.9,0-1.4,0.1c-0.8,0-1.1,0.4-1,1s0.1,1.3,0.2,1.9
				c0,0.2-0.1,0.4-0.4,0.4c-1,0-1.9,0.1-2.9,0.1c-0.3,0-0.5-0.1-0.5-0.4c-0.1-0.9-0.2-1.7-0.3-2.6c-0.3-2.3,1-3.6,3.7-3.7
				c1.1-0.1,2.1-0.1,3.2-0.2c2.7-0.1,4.2,1.1,4.4,3.4c0.1,2,0.3,3.9,0.4,5.9c0,0.5-0.2,0.7-0.7,0.9C718.2,262,716.3,263,714.3,264.1
				L714.3,264.1z"/>
			<path class="st13" d="M724.3,254.1c-0.1-2.4,1.2-3.7,3.9-3.7c1.1,0,2.1,0,3.2-0.1c2.7,0,4.2,1.2,4.2,3.6c0,4.3,0.1,8.7,0.2,13
				c0,2.4-1.3,3.6-3.8,3.6c-1,0-2,0-3,0c-2.5,0-3.9-1.3-4-3.6C724.8,262.7,724.5,258.4,724.3,254.1L724.3,254.1z M731.2,267.3
				c0.7,0,1.1-0.3,1-1c-0.1-3.9-0.2-7.8-0.3-11.7c0-0.7-0.4-1-1.2-1c-0.5,0-1.1,0-1.7,0c-0.7,0-1.1,0.4-1.1,1
				c0.2,3.9,0.3,7.8,0.5,11.7c0,0.7,0.4,1,1.1,1C730.2,267.3,730.7,267.3,731.2,267.3L731.2,267.3z"/>
			<path class="st13" d="M743.5,263.9c-0.3,0.1-0.4,0.3-0.4,0.6c0,0.7,0,1.5,0,2.2c0,0.3,0.2,0.5,0.5,0.5c1,0,1.9,0,2.9,0
				c0-0.4,0-0.7,0-1s0.2-0.5,0.6-0.5c0.9,0,1.7,0,2.6,0c0.3,0,0.5,0.2,0.5,0.5c-0.1,1.3-0.1,2.6-0.2,3.9c0,0.3-0.2,0.5-0.5,0.5
				c-3.2,0-6.4,0-9.5,0c-0.3,0-0.5-0.2-0.5-0.5c0-2.5,0-5,0-7.5c0-0.5,0.2-0.7,0.7-0.9c2.2-1.1,4.4-2.1,6.6-3.2
				c0-1.2,0.1-2.5,0.1-3.7c0-0.7-0.4-1-1.1-1c-0.5,0-0.9,0-1.4,0c-0.8,0-1.1,0.3-1.2,1s0,1.3,0,2c0,0.2-0.2,0.4-0.5,0.4
				c-1,0-1.9,0-2.9,0c-0.3,0-0.5-0.1-0.5-0.4c0-0.9,0-1.8,0-2.7c0-2.4,1.4-3.7,4.2-3.6c1.1,0,2.1,0,3.2,0c2.7,0.1,4.1,1.4,4,3.7
				c-0.1,2-0.2,4-0.3,5.9c0,0.5-0.2,0.7-0.8,0.9C747.6,261.8,745.6,262.8,743.5,263.9L743.5,263.9z"/>
			<path class="st13" d="M766.7,261.8c0.4,0,0.5,0.2,0.5,0.5c-0.1,0.7-0.2,1.4-0.2,2.1c0,0.3-0.2,0.5-0.6,0.5c-0.4,0-0.7,0-1.1,0
				c-0.2,1.8-0.4,3.5-0.6,5.3c0,0.3-0.2,0.5-0.6,0.5c-0.8,0-1.5,0-2.3,0c-0.3,0-0.5-0.2-0.5-0.5c0.2-1.8,0.3-3.6,0.5-5.4
				c-2.6,0-5.2-0.1-7.8-0.1c-0.3,0-0.5-0.2-0.5-0.5c0-0.7,0.1-1.5,0.1-2.2c0-0.2,0.1-0.4,0.2-0.6c2.6-3.4,5.2-6.8,8-10.1
				c0.2-0.2,0.4-0.3,0.7-0.3c1,0.1,2,0.1,3,0.2c0.5,0,0.6,0.3,0.3,0.6c-2.8,3.2-5.4,6.6-8,10c1.4,0,2.8,0.1,4.2,0.1
				c0.1-1,0.2-2,0.3-3c0-0.3,0.2-0.5,0.6-0.5c0.8,0,1.6,0.1,2.4,0.1c0.4,0,0.5,0.2,0.5,0.5c-0.1,1-0.2,1.9-0.3,2.9
				C766,261.7,766.3,261.8,766.7,261.8z"/>
		</g>
		<g>
			<g>
				<polygon class="st3" points="803.1,254.4 787.1,277.8 738.7,301.4 690.3,277.8 674.3,254.4 695.1,273.8 738.7,291.7 
					782.3,273.8 				"/>
				<path class="st13" d="M644.8,253.6c-1.9,0.2-6.9,1.2-6.9,1.2l28.3,41.5l72.4,35.4v-5.2L671,292.3L644.8,253.6L644.8,253.6z"/>
				<path class="st1" d="M738.7,318.7v7.7L671,292.3l-26.1-38.7c2.3-0.2,4.6-0.4,6.9-0.6l23.8,34.9L738.7,318.7L738.7,318.7z"/>
				<path class="st1" d="M832.5,253.6c1.9,0.2,6.9,1.2,6.9,1.2l-28.3,41.5l-72.4,35.4v-5.2l67.7-34.1L832.5,253.6L832.5,253.6z"/>
				<path class="st13" d="M738.7,318.7v7.7l67.7-34.1l26.1-38.7c-2.3-0.2-4.6-0.4-6.9-0.6l-23.8,34.9L738.7,318.7L738.7,318.7z"/>
				<polygon class="st24" points="803.1,254.4 785.6,275 738.7,296 691.8,275 674.3,254.4 695.1,273.8 738.7,291.7 782.3,273.8 				
					"/>
			</g>
			<g>
				<path class="st15" d="M655.7,213.9c0,0.4-0.3,0.6-0.8,0.7c-1.5,0.2-3,0.3-4.4,0.5c-0.5,0.1-0.7-0.1-0.7-0.5c0.1-1,0.2-2,0.2-3
					c0.1-1-0.5-1.4-1.6-1.3c-0.8,0.1-1.5,0.2-2.3,0.3c-1.2,0.1-1.8,0.7-1.9,1.7c-0.5,5.8-1,11.5-1.5,17.3c-0.1,1,0.5,1.4,1.7,1.3
					c0.8-0.1,1.6-0.2,2.4-0.3c1.2-0.1,1.9-0.7,1.9-1.7c0.1-1,0.2-2,0.2-3c0-0.4,0.3-0.6,0.8-0.7c1.5-0.2,3-0.3,4.5-0.5
					c0.5-0.1,0.7,0.1,0.7,0.5c-0.1,1.4-0.2,2.7-0.2,4.1c-0.2,3.6-2.7,5.7-7,6.2c-1.7,0.2-3.4,0.4-5.2,0.6c-4.3,0.5-6.5-1.2-6.2-4.7
					c0.6-6.5,1.2-12.9,1.9-19.4c0.3-3.6,2.8-5.7,6.9-6.2c1.6-0.2,3.3-0.4,4.9-0.6c4-0.5,6.1,1.2,5.9,4.7
					C655.9,211.2,655.8,212.6,655.7,213.9L655.7,213.9z"/>
				<path class="st15" d="M669.2,208.6c0.3-3.6,2.6-5.6,6.6-5.9c1.6-0.1,3.2-0.2,4.8-0.4c4-0.3,6.1,1.4,6,5
					c-0.2,6.5-0.5,13-0.7,19.5c-0.1,3.6-2.5,5.6-6.7,5.9c-1.7,0.1-3.4,0.2-5.1,0.4c-4.3,0.3-6.4-1.4-6.2-5
					C668.2,221.6,668.7,215.1,669.2,208.6z M678.2,227.9c1.2-0.1,1.8-0.6,1.9-1.6c0.3-5.9,0.6-11.7,0.8-17.6c0-1-0.5-1.5-1.7-1.4
					c-0.8,0.1-1.7,0.1-2.5,0.2c-1.1,0.1-1.8,0.7-1.8,1.6c-0.4,5.9-0.7,11.7-1,17.6c-0.1,1,0.5,1.5,1.7,1.4
					C676.4,228,677.3,227.9,678.2,227.9L678.2,227.9z"/>
				<path class="st15" d="M717.4,200.5c0.4,0,0.7,0.2,0.7,0.6c-0.1,9.8-0.2,19.5-0.3,29.2c0,0.4-0.3,0.6-0.7,0.6
					c-1.5,0.1-3,0.1-4.5,0.1c-0.4,0-0.7-0.1-0.8-0.5c-2.2-5.4-4.3-10.7-6.4-16c-0.1,0-0.2,0-0.2,0c-0.2,5.4-0.3,10.8-0.5,16.1
					c0,0.4-0.2,0.6-0.7,0.6c-1.6,0.1-3.1,0.1-4.7,0.2c-0.5,0-0.7-0.2-0.7-0.6c0.4-9.8,0.9-19.5,1.3-29.2c0-0.4,0.3-0.6,0.7-0.6
					c1.4-0.1,2.8-0.1,4.2-0.2c0.4,0,0.6,0.1,0.8,0.5c2,5.3,4,10.6,6.2,15.9c0.1,0,0.2,0,0.3,0c0.1-5.4,0.2-10.7,0.3-16.1
					c0-0.4,0.2-0.6,0.7-0.6C714.5,200.6,716,200.5,717.4,200.5L717.4,200.5z"/>
				<path class="st15" d="M746.5,200.3c0.5,0,0.7,0.2,0.7,0.6c0,1.3,0,2.5,0.1,3.8c0,0.4-0.2,0.6-0.7,0.6c-1.7,0-3.3,0-5,0
					c0.1,8.3,0.1,16.6,0.2,24.8c0,0.4-0.2,0.6-0.7,0.6c-1.6,0-3.1,0-4.7,0c-0.5,0-0.7-0.2-0.7-0.6c0-8.3,0.1-16.6,0.1-24.8
					c-1.7,0-3.3,0-5,0c-0.4,0-0.7-0.2-0.7-0.6c0-1.3,0-2.5,0.1-3.8c0-0.4,0.3-0.6,0.7-0.6C736.1,200.3,741.3,200.3,746.5,200.3
					L746.5,200.3z"/>
				<path class="st15" d="M776.2,205.7c0,0.4-0.1,0.6-0.7,0.6c-3.6-0.2-7.2-0.3-10.8-0.4c0.1,2.5,0.1,5.1,0.2,7.6
					c2.8,0.1,5.6,0.2,8.3,0.3c0.4,0,0.7,0.3,0.7,0.7c0,1.3,0.1,2.5,0.2,3.8c0,0.4-0.2,0.6-0.7,0.6c-2.8-0.1-5.6-0.2-8.4-0.3
					c0.1,2.6,0.1,5.1,0.2,7.7c3.7,0.1,7.5,0.3,11.2,0.4c0.5,0,0.7,0.2,0.7,0.6c0.1,1.3,0.1,2.5,0.2,3.8c0,0.4-0.2,0.6-0.7,0.6
					c-5.5-0.2-11.1-0.4-16.6-0.6c-0.4,0-0.7-0.2-0.7-0.6c-0.1-9.8-0.2-19.5-0.3-29.2c0-0.4,0.2-0.6,0.6-0.6
					c5.2,0.2,10.5,0.4,15.7,0.6c0.5,0,0.7,0.3,0.7,0.6C776,203.2,776.1,204.5,776.2,205.7L776.2,205.7z"/>
				<path class="st15" d="M798.8,202.9c4,0.3,6.3,2.4,6.6,6c0.1,1.3,0.2,2.7,0.3,4c0,0.4-0.2,0.6-0.7,0.6c-1.5-0.1-3-0.2-4.6-0.4
					c-0.4,0-0.7-0.3-0.7-0.7c-0.1-1-0.1-2-0.2-3c-0.1-1-0.7-1.6-1.8-1.7c-0.7-0.1-1.4-0.1-2.1-0.2c-1.1-0.1-1.7,0.4-1.7,1.4
					c0.1,1.8,0.2,3.5,0.3,5.2c3.5,1.2,7.1,2.5,10.7,3.8c0.8,0.3,1.2,0.8,1.3,1.5c0.2,2.9,0.4,5.9,0.6,8.8c0.3,3.6-1.9,5.3-6.2,5
					c-1.7-0.1-3.4-0.2-5.1-0.4c-4.2-0.3-6.6-2.4-6.8-5.9c0-1.3-0.1-2.7-0.2-4c0-0.4,0.2-0.6,0.7-0.6c1.5,0.1,3.1,0.2,4.6,0.3
					c0.5,0,0.7,0.2,0.8,0.7c0,1,0.1,1.9,0.1,2.9s0.8,1.6,1.9,1.6c0.7,0.1,1.4,0.1,2.2,0.2c1.2,0.1,1.8-0.4,1.7-1.4
					c-0.1-1.7-0.2-3.4-0.3-5.1c-3.6-1.3-7.2-2.5-10.7-3.8c-0.8-0.3-1.2-0.8-1.2-1.5c-0.1-3-0.2-6-0.4-9c-0.1-3.6,2-5.3,6-5
					C795.5,202.6,797.1,202.7,798.8,202.9L798.8,202.9z"/>
				<path class="st15" d="M833.1,206.4c0.5,0.1,0.7,0.3,0.8,0.7c0.1,1.3,0.2,2.5,0.4,3.8c0,0.4-0.2,0.6-0.7,0.5
					c-1.7-0.2-3.4-0.4-5.1-0.6c0.7,8.2,1.4,16.4,2.1,24.7c0,0.4-0.2,0.6-0.7,0.5c-1.6-0.2-3.2-0.3-4.8-0.5c-0.5-0.1-0.8-0.3-0.8-0.7
					c-0.6-8.2-1.2-16.4-1.9-24.7c-1.7-0.2-3.4-0.4-5.1-0.6c-0.4-0.1-0.7-0.3-0.7-0.7c-0.1-1.3-0.2-2.5-0.2-3.8
					c0-0.4,0.2-0.6,0.7-0.5C822.4,205.1,827.8,205.7,833.1,206.4L833.1,206.4z"/>
			</g>
		</g>
		<g>
			<g>
				<path class="st13" d="M708.2,47.9c-10.3,1.3-20.5,3.3-30.6,6.1c-14.9,4.1-29.9,10-44.8,17.4l-3.2,1.6v37.2
					c2.2-0.3,4.3-0.5,6.5-0.8V76.3c14.5-7.2,29.1-12.9,43.5-16.9c11.4-3.2,23-5.3,34.6-6.5L708.2,47.9L708.2,47.9z"/>
				<path class="st13" d="M839.8,71.8c-16-7.5-31.9-13.5-47.5-17.6c-9.5-2.5-18.9-4.5-28.3-5.8l-5.7,4.9v0.1
					c10.6,1.2,21.4,3.3,32.1,6.2c15.2,4.1,30.7,9.8,46.3,17.2v32.6c2.2,0.2,4.3,0.5,6.5,0.8V73.4L839.8,71.8L839.8,71.8z"/>
			</g>
			<g>
				<path class="st1" d="M714.4,53.2l-0.3-0.3c-11.6,1.2-23.2,3.3-34.6,6.5c-14.5,4-29,9.7-43.5,16.9v33.2c2.2-0.2,4.3-0.5,6.5-0.7
					V79.6c13-6.3,26.1-11.3,39-14.8c10.5-2.9,21.2-5,31.9-6.1L714.4,53.2L714.4,53.2z"/>
				<path class="st1" d="M790.4,59.5c-10.7-2.9-21.5-4.9-32.1-6.2l1.2,5.9c9.6,1.2,19.3,3.1,29.1,5.8c13.6,3.7,27.7,8.8,41.7,15.2
					v28.5c2.2,0.2,4.3,0.5,6.5,0.7V76.8C821.1,69.4,805.6,63.6,790.4,59.5L790.4,59.5z"/>
			</g>
			<polygon class="st3" points="736.3,55.2 725.3,60.3 727.4,49.5 718.5,41.9 730.8,40.3 736.3,30.5 741.8,40.3 754.2,41.9 
				745.3,49.5 747.4,60.3 			"/>
			<polygon class="st24" points="725.3,60.3 736.3,49.6 747.4,60.3 736.3,55.2 			"/>
		</g>
	</g>
	<g>
		<g>
			<path class="st0" d="M1113,163.9c1.1-3,2.2-6,3.3-9c0.6-1.6,0.2-2.4-1.3-2.4c-0.3,0-0.7,0-1,0.1c-2.6,0.5-5.2,1-7.8,1.5
				c-2,5-3.9,10-5.9,15.1c2.7-0.6,5.4-1.1,8.1-1.6C1110.7,167.1,1112.3,165.9,1113,163.9L1113,163.9z"/>
			<path class="st0" d="M1122,139.6c1.1-2.9,2.2-5.8,3.3-8.7c0.6-1.5,0.2-2.4-1.2-2.4c-0.3,0-0.6,0-0.9,0.1
				c-2.4,0.4-4.9,0.8-7.3,1.3c-2,4.8-3.9,9.6-5.9,14.5c2.5-0.5,5.1-0.9,7.6-1.4C1119.8,142.6,1121.4,141.4,1122,139.6L1122,139.6z"
				/>
			<path class="st0" d="M1208.2,152.2c1.5-10.1,3-20.2,4.5-30.3c0.2-1.7-0.6-2.6-2.5-2.6c-0.1,0-0.2,0-0.3,0c-2.5,0.1-5,0.3-7.4,0.4
				c-2.2,11.9-4.3,23.8-6.5,35.9c2.8-0.2,5.5-0.4,8.3-0.6C1206.6,155,1208,154,1208.2,152.2L1208.2,152.2z"/>
			<path class="st0" d="M1253.4,118.2L1253.4,118.2c-2.5,0-5,0-7.5,0.1c-0.6,11.8-1.2,23.5-1.7,35.3c2.8,0,5.5-0.1,8.3-0.1
				c2.3,0,3.6-0.9,3.6-2.6c0.2-10,0.3-19.9,0.5-29.9C1256.6,119.1,1255.5,118.2,1253.4,118.2L1253.4,118.2z"/>
		</g>
		<path d="M1430.9,248.7l17.8-19.5l-18.2-3.2c-6.1-1.1-20.8-3.6-34.7-5.7l-3.7-18.1c7.1,0.9,19.8,2.7,30.6,4.3l14.4,2.2l7.8-11.1
			l-6.2-14.6l0,0l-8.8-20.7L1423,146h11l-11.7-26.9l-5.4-1.2c-1.3-0.3-2.7-0.6-4.1-0.8l0,0l0,0c-1.9-0.3-3.8-0.7-5.8-1
			c0,0-13.8-2.3-20.9-3.2c-0.2,0-7.7-1.1-11.3-1.5V67.3l-6.1-2.9l-3.4-1.6c-16.6-7.9-33.3-14.1-49.6-18.4
			c-6.3-1.7-12.6-3.1-18.9-4.3l-20.9-3.6l-6.2-0.8l-2.8-5L1256.3,12l-10.5,18.6l-2.8,5l-6.2,0.8l-21.5,3c-7.1,1.3-14.2,2.9-21.2,4.8
			c-15.7,4.3-31.5,10.5-47.1,18.3l-3.2,1.6l-5.9,2.9v44.5c-18.1,2.1-37.6,7-37.6,7l-2.6,6c0,0,0,0.1-0.1,0.1
			c-6.7,15-13.2,30.3-19.4,45.7l-11.5,27.1l8.1,11.5l13.7-2.4c16.4-2.4,37.5-5,37.5-5l-3.9,19.6c-13.9,2.1-52.9,8.8-52.9,8.8
			s15.7,16.8,17.8,18.6c-0.5,0.5-1.1,1-1.6,1.4c-3.3,2.9-29.8,31.6-29.8,31.6l31.1-5.5c22.3-3.9,45.1-7.3,67.7-10l24.1,35.3l1.6,2.4
			l2.7,1.3l75.8,37l76.4-37l2.7-1.3l1.6-2.4l24.1-35.3c22.6,2.8,45.4,6.1,67.7,10l31.1,5.5L1430.9,248.7L1430.9,248.7z"/>
		<path class="st1" d="M1256.3,12l10.5,18.6l2.8,5l6.2,0.8l20.9,3.6c6.3,1.2,12.7,2.6,18.9,4.3c16.3,4.4,33,10.6,49.6,18.4l3.4,1.6
			l6.1,2.9v44.1c22.4,2.7,47.6,7.8,47.6,7.8L1434,146h-11l6.9,16.2l8.8,20.7l0,0l6.2,14.6l-7.8,11.1l-14.4-2.2
			c-10.9-1.6-23.5-3.3-30.6-4.3l2.7,19.1l52.9,8.8l-16.8,18.6l31.4,33.1l-31.1-5.5c-22.3-3.9-45.1-7.3-67.7-10l-24.1,35.3l-1.6,2.4
			l-2.7,1.3l-76.4,37l-75.8-37l-2.7-1.3l-1.6-2.4l-24.1-35.3c-22.6,2.8-45.4,6.1-67.7,10l-31.1,5.5c0,0,26.5-28.7,29.8-31.6
			c0.6-0.5,1.1-1,1.6-1.4l-16.8-18.6l52.9-8.8l2.9-19.6c0,0-21.2,2.7-37.5,5l-13.7,2.4l-8.1-11.5l11.5-27.1
			c6.2-15.3,12.7-30.6,19.4-45.7c0,0,0-0.1,0.1-0.1l2.6-6c0,0,19.4-4.8,37.6-7V67.1l5.9-2.9l3.2-1.6c15.6-7.8,31.4-14,47.1-18.3
			c7-1.9,14.1-3.5,21.2-4.8l21.5-3l6.2-0.8l2.8-5L1256.3,12 M1256.4,0l-5.3,9.4L1240.6,28l-1.4,2.4l-3.2,0.4l0,0l0,0l-21.5,3h-0.1
			h-0.1c-7.4,1.3-14.7,3-21.8,4.9c-16.1,4.4-32.3,10.7-48.2,18.7L1141,59l-5.9,3l-3.2,1.6v43c-16.6,2.3-32.4,6.3-33.1,6.4l-2.9,0.7
			l-1.1,2.6l-2.5,5.8c0,0.1-0.1,0.1-0.1,0.2c-6.6,14.8-13.2,30.2-19.5,45.8l-11.5,27.1l-1.2,2.7l1.7,2.4l8.1,11.5l2.2,3.1l3.9-0.7
			l13.6-2.4c10.1-1.4,22.1-3,29.7-4c-0.5,4-1,4.2-1.5,8.2c-13,2-26,4.1-31.3,5l-18.2,3.2l-9,1.7l19.7,22.2
			c-7.2,7.3-25.4,27.1-27.7,29.6l-11.1,12.1l16.8-3l31.1-5.5c20.9-3.7,42.3-6.9,63.6-9.5l22.1,32.3l1.6,2.4l0.9,1.2l1.4,0.7l2.7,1.3
			l75.8,37l2.8,1.4l2.8-1.4l76.4-37l2.7-1.3l1.4-0.7l0.9-1.2l1.6-2.4l22.1-32.3c21.3,2.7,42.7,5.9,63.6,9.5l31.1,5.5l17.2,3
			l-11.6-12.2l-28-29.5l20.1-22.2l-58.7-9.9l-1.3-7.7c6.8,0.9,15.3,2.1,22.9,3.2l14.4,2.2l3.9,0.6l2.1-3.1l7.8-11.1l1.7-2.4
			l-1.2-2.7l-6.2-14.6l-8.8-20.7l-3.6-8.5h2.1h8.9l-3.3-7.7l-11.7-26.9l-1.2-2.7l-3.1-0.6c-0.2-0.1-21.9-4.4-42.8-7.2V63.8l-3.3-1.5
			l-6.1-2.9l-3.4-1.6c-17-8-34-14.3-50.7-18.8c-6.4-1.7-12.9-3.2-19.4-4.4l0,0l0,0l-20.9-3.6h-0.1h-0.1l-3.2-0.4l-1.4-2.4L1262,9.6
			L1256.4,0L1256.4,0L1256.4,0z"/>
		<polygon class="st2" points="1456.3,281 1456.3,281.6 1457,281.7 		"/>
		<polygon class="st2" points="1056.3,281 1056.3,281.6 1055.7,281.7 		"/>
		<path class="st12" d="M1435.3,266.2l-18.5-17.8l13.2-11.5c-7.2-1.2-27.7-4.6-43.1-6.9l-3.9-29.6c0,0-51.3-8.8-124.2-8.4
			c-72.9-0.5-124.2,8.4-124.2,8.4l-3.9,29.6c-15.4,2.3-35.9,5.7-43.1,6.9l13.2,11.5l-18.5,17.8c23.3-4.1,46.7-7.5,70.2-10.4
			c-7.7-4.7-23.1-8.5-23.1-8.5s52.2-9.4,129.4-8.9c77.2-0.5,129.4,8.9,129.4,8.9s-15.4,3.8-23.1,8.5
			C1388.6,258.7,1412,262.2,1435.3,266.2L1435.3,266.2z"/>
		<g>
			
				<linearGradient id="SVGID_00000005262594147114732460000000768109869249746079_" gradientUnits="userSpaceOnUse" x1="1110.3372" y1="-143.1238" x2="1111.5671" y2="-94.0238" gradientTransform="matrix(1 0 0 1 0 264.9606)">
				<stop  offset="0" style="stop-color:#FFFFFF"/>
				<stop  offset="1" style="stop-color:#CAE6FF"/>
			</linearGradient>
			<path style="fill:url(#SVGID_00000005262594147114732460000000768109869249746079_);" d="M1132.3,144.8c-0.9,2.6-3.9,5-7.1,5.9
				c0,0.1,0,0.1-0.1,0.1c2.9-0.1,4.5,1.6,3.6,4.2c-1.5,4.4-3.1,8.9-4.6,13.4c-2.3,6.9-8.2,11.5-16.8,13.2c-7.2,1.5-14.5,3-21.7,4.7
				c-0.9,0.2-1.3-0.1-0.9-0.9c7.9-20.2,16-39.1,24-57c0.3-0.8,1-1.2,1.8-1.4c6.3-1.2,12.5-2.4,18.8-3.4c7.3-1.2,10.1,1.7,7.8,8.2
				C1135.3,136.2,1133.8,140.5,1132.3,144.8L1132.3,144.8z M1125.4,135.5c0.7-1.8,0-2.6-2.1-2.3c-2.4,0.4-4.9,0.8-7.3,1.3
				c-2,4.8-3.9,9.6-5.9,14.5c2.5-0.5,5.1-0.9,7.6-1.4c2.2-0.4,3.7-1.6,4.4-3.4C1123.2,141.3,1124.3,138.4,1125.4,135.5L1125.4,135.5
				z M1116.3,159.5c0.7-1.9,0-2.7-2.3-2.3c-2.6,0.5-5.2,1-7.8,1.5c-2,5-3.9,10-5.9,15.1c2.7-0.6,5.4-1.1,8.1-1.6
				c2.3-0.4,3.9-1.7,4.6-3.7C1114.1,165.5,1115.2,162.5,1116.3,159.5L1116.3,159.5z"/>
			
				<linearGradient id="SVGID_00000021114317209543760730000006255358649501554105_" gradientUnits="userSpaceOnUse" x1="1158.3573" y1="-144.2418" x2="1159.5873" y2="-95.1418" gradientTransform="matrix(1 0 0 1 0 264.9606)">
				<stop  offset="0" style="stop-color:#FFFFFF"/>
				<stop  offset="1" style="stop-color:#CAE6FF"/>
			</linearGradient>
			<path style="fill:url(#SVGID_00000021114317209543760730000006255358649501554105_);" d="M1181.1,117.4c0.9-0.1,1.4,0.5,1.2,1.2
				c-3.5,14.2-7,28.6-10.5,43.3c-1.5,6.5-7,10.5-15.6,11.6c-3.4,0.5-6.8,0.9-10.2,1.4c-8.6,1.3-12-1.6-9.8-8.4
				c4.9-15.3,9.8-30.2,14.6-44.6c0.2-0.8,1.2-1.4,2-1.6c2.5-0.3,5-0.6,7.6-0.9c0.9-0.1,1.4,0.4,1.2,1.2
				c-4.2,13.7-8.4,27.8-12.7,42.1c-0.6,1.9,0.4,2.7,2.7,2.4c1.6-0.2,3.1-0.4,4.7-0.6c2.3-0.3,3.8-1.4,4.3-3.2
				c3.8-14.2,7.6-28.1,11.4-41.7c0.2-0.7,1.1-1.4,1.9-1.5C1176.3,117.8,1178.7,117.6,1181.1,117.4L1181.1,117.4z"/>
			
				<linearGradient id="SVGID_00000089573905076150974880000017207538905652114861_" gradientUnits="userSpaceOnUse" x1="1202.2047" y1="-145.2787" x2="1203.4347" y2="-96.1687" gradientTransform="matrix(1 0 0 1 0 264.9606)">
				<stop  offset="0" style="stop-color:#FFFFFF"/>
				<stop  offset="1" style="stop-color:#CAE6FF"/>
			</linearGradient>
			<path style="fill:url(#SVGID_00000089573905076150974880000017207538905652114861_);" d="M1193.1,117.5c0.1-0.7,0.6-1.1,1.5-1.2
				c6.3-0.4,12.6-0.8,18.9-1.1c7.4-0.3,10.9,2.9,10.2,9.1c-1.3,11.2-2.6,22.5-4,33.8c-0.7,6.2-5.7,9.8-14.4,10.4
				c-7.4,0.5-14.7,1.1-22.1,1.8c-1,0.1-1.4-0.2-1.2-0.9C1185.8,151.8,1189.5,134.5,1193.1,117.5L1193.1,117.5z M1204.2,159.8
				c2.3-0.2,3.7-1.1,4-2.9c1.5-10.1,3-20.2,4.5-30.3c0.3-1.8-0.7-2.7-2.8-2.6c-2.5,0.1-5,0.3-7.4,0.4c-2.2,11.9-4.3,23.8-6.5,35.9
				C1198.7,160.2,1201.5,160,1204.2,159.8L1204.2,159.8z"/>
			
				<linearGradient id="SVGID_00000139277321109587854370000009998818108073582492_" gradientUnits="userSpaceOnUse" x1="1248.5403" y1="-146.3986" x2="1249.7703" y2="-97.2086" gradientTransform="matrix(1 0 0 1 0 264.9606)">
				<stop  offset="0" style="stop-color:#FFFFFF"/>
				<stop  offset="1" style="stop-color:#CAE6FF"/>
			</linearGradient>
			<path style="fill:url(#SVGID_00000139277321109587854370000009998818108073582492_);" d="M1235.5,115.5c0.1-0.7,0.5-1.1,1.3-1.1
				c6.3-0.2,12.6-0.2,18.9-0.3c7.4,0,11.4,3.4,11.5,9.6c0.2,11.2,0.4,22.4,0.6,33.7c0.1,6.2-4.4,9.4-13.1,9.4
				c-7.4,0-14.8,0.1-22.1,0.4c-1,0-1.4-0.3-1.4-1C1232.7,149.2,1234.1,132.3,1235.5,115.5L1235.5,115.5z M1252.4,158.1
				c2.3,0,3.6-0.9,3.6-2.6c0.2-10,0.3-19.9,0.5-29.9c0-1.8-1.1-2.7-3.2-2.7c-2.5,0-5,0-7.5,0.1c-0.6,11.8-1.2,23.5-1.7,35.3
				C1246.9,158.1,1249.7,158.1,1252.4,158.1L1252.4,158.1z"/>
			
				<linearGradient id="SVGID_00000112628203163593346870000014458668123866281144_" gradientUnits="userSpaceOnUse" x1="1293.9855" y1="-147.4603" x2="1295.2155" y2="-98.2603" gradientTransform="matrix(1 0 0 1 0 264.9606)">
				<stop  offset="0" style="stop-color:#FFFFFF"/>
				<stop  offset="1" style="stop-color:#CAE6FF"/>
			</linearGradient>
			<path style="fill:url(#SVGID_00000112628203163593346870000014458668123866281144_);" d="M1312.4,115.4c1.2,0.1,1.8,0.7,1.5,1.6
				c-3.2,9.7-6.9,19.4-11,29c0.8,7,1.7,13.9,2.5,20.9c0.1,0.9-0.5,1.3-1.7,1.2c-2.9-0.2-5.9-0.4-8.8-0.5c-1.2-0.1-1.9-0.6-2-1.4
				c-0.6-6.9-1.2-13.9-1.8-20.8c-6.1-10.1-11.8-20-17-29.8c-0.5-0.9,0-1.5,1.2-1.5c2.6,0,5.3,0.1,7.9,0.1c0.9,0,1.5,0.4,1.9,1.1
				c3.4,6.4,7,12.8,10.8,19.3c2.5-6.2,4.8-12.5,6.9-18.8c0.2-0.7,0.7-1,1.7-1C1307.1,115.2,1309.8,115.3,1312.4,115.4L1312.4,115.4z
				"/>
			
				<linearGradient id="SVGID_00000015330175493354982150000000305364105260306319_" gradientUnits="userSpaceOnUse" x1="1339.2456" y1="-148.519" x2="1340.4756" y2="-99.329" gradientTransform="matrix(1 0 0 1 0 264.9606)">
				<stop  offset="0" style="stop-color:#FFFFFF"/>
				<stop  offset="1" style="stop-color:#CAE6FF"/>
			</linearGradient>
			<path style="fill:url(#SVGID_00000015330175493354982150000000305364105260306319_);" d="M1355.9,126.6c0.2,0.7-0.2,1.1-1,1
				c-6.7-0.7-13.4-1.3-20.1-1.9c1,4.6,2,9.2,3,13.8c5.3,0.5,10.5,1,15.8,1.6c0.8,0.1,1.4,0.6,1.6,1.3c0.6,2.3,1.2,4.7,1.8,7
				c0.2,0.8-0.2,1.1-1.1,1c-5.4-0.6-10.8-1.2-16.2-1.7c1.6,7.4,3.2,14.8,4.8,22.2c0.2,0.7-0.3,1.1-1.2,0.9c-3.2-0.4-6.4-0.7-9.5-1.1
				c-1-0.1-1.6-0.6-1.7-1.3c-3.3-17.7-6.6-35.2-9.8-52.4c-0.1-0.7,0.2-1.1,1.1-1c9.7,0.6,19.3,1.4,29,2.4c0.8,0.1,1.4,0.5,1.6,1.2
				C1354.6,122,1355.2,124.3,1355.9,126.6L1355.9,126.6z"/>
			
				<linearGradient id="SVGID_00000171679078104205811820000018374637985016903082_" gradientUnits="userSpaceOnUse" x1="1378.1451" y1="-149.4196" x2="1379.3752" y2="-100.2196" gradientTransform="matrix(1 0 0 1 0 264.9606)">
				<stop  offset="0" style="stop-color:#FFFFFF"/>
				<stop  offset="1" style="stop-color:#CAE6FF"/>
			</linearGradient>
			<path style="fill:url(#SVGID_00000171679078104205811820000018374637985016903082_);" d="M1373.8,121c0.8,0.1,1.4,0.6,1.6,1.3
				c6,17.9,12,36.5,18,55.9c0.2,0.8-0.2,1.1-1.1,0.9c-3.2-0.6-6.3-1.1-9.5-1.7c-1-0.2-1.6-0.7-1.8-1.4c-5.5-19-10.9-37.3-16.4-55.1
				c-0.2-0.7,0.1-1.1,0.9-1C1368.3,120.3,1371.1,120.6,1373.8,121L1373.8,121z"/>
			
				<linearGradient id="SVGID_00000085932758059228772990000014097541086733705649_" gradientUnits="userSpaceOnUse" x1="1405.3802" y1="-150.0719" x2="1406.6104" y2="-100.8619" gradientTransform="matrix(1 0 0 1 0 264.9606)">
				<stop  offset="0" style="stop-color:#FFFFFF"/>
				<stop  offset="1" style="stop-color:#CAE6FF"/>
			</linearGradient>
			<path style="fill:url(#SVGID_00000085932758059228772990000014097541086733705649_);" d="M1414.2,127.9c0.9,0.2,1.4,0.7,1.8,1.4
				c1,2.4,2.1,4.8,3.1,7.3c0.3,0.7,0.1,1.1-0.8,0.9c-3.1-0.7-6.2-1.3-9.3-1.9c6.4,15.9,12.7,32.4,19.1,49.9c0.3,0.9,0,1.2-1,0.9
				c-3.1-0.7-6.2-1.4-9.4-2.1c-0.9-0.2-1.6-0.7-1.9-1.6c-5.9-17.1-11.8-33.4-17.7-49.1c-3.1-0.5-6.2-1.1-9.3-1.5
				c-0.8-0.1-1.4-0.6-1.7-1.3c-0.8-2.4-1.7-4.8-2.5-7.1c-0.2-0.7,0.1-1.1,0.8-0.9C1395,124.2,1404.6,125.9,1414.2,127.9
				L1414.2,127.9z"/>
		</g>
		<path class="st12" d="M1078,197.9c29.1-6.3,58.7-11,88.5-14.2s59.8-4.8,89.9-4.9c30-0.1,60.1,1.4,89.9,4.6
			c29.8,3.2,59.4,7.9,88.4,14.5c-29.4-4.9-59.1-8.7-88.8-11.2c-29.7-2.5-59.6-3.8-89.5-3.7s-59.7,1.4-89.5,4
			C1137.2,189.5,1107.5,193.3,1078,197.9L1078,197.9z"/>
		<g>
			<path class="st1" d="M1186.8,81.6c0.3,0,0.4,0.1,0.3,0.4c-1.8,6.1-3.5,12.1-5.3,18.2c-0.1,0.2-0.3,0.4-0.6,0.4
				c-1,0.1-2,0.1-3,0.2c-0.3,0-0.4-0.1-0.3-0.4c1.9-6.1,3.7-12.3,5.6-18.4c0.1-0.2,0.2-0.4,0.5-0.4L1186.8,81.6L1186.8,81.6z"/>
			<path class="st1" d="M1201.1,81.6c0.3,0,0.4,0.1,0.3,0.4c-1.4,5.8-2.8,11.6-4.2,17.4c-0.1,0.2-0.3,0.4-0.5,0.4
				c-0.9,0-1.9,0.1-2.8,0.1c-0.3,0-0.4-0.1-0.4-0.3c-0.6-3.2-1.2-6.4-1.7-9.7c-0.1,0-0.1,0-0.1,0c-0.9,3.3-1.8,6.6-2.6,9.8
				c-0.1,0.2-0.2,0.4-0.6,0.4c-1,0.1-2,0.1-3,0.2c-0.3,0-0.4-0.1-0.3-0.3c1.7-6,3.4-12,5.1-18c0.1-0.2,0.3-0.4,0.5-0.4h2.6
				c0.2,0,0.4,0.1,0.4,0.3c0.4,3.3,1,6.5,1.5,9.7c0.1,0,0.1,0,0.2,0c0.8-3.2,1.6-6.4,2.4-9.7c0.1-0.2,0.2-0.4,0.5-0.4L1201.1,81.6
				L1201.1,81.6z"/>
			<path class="st1" d="M1204.4,81.9c0.1-0.2,0.2-0.4,0.5-0.4h6.3c2.5,0,3.6,1.1,3.2,3.2c-0.7,3.7-1.4,7.5-2.1,11.2
				c-0.4,2.1-2,3.2-4.7,3.3c-2.3,0.1-4.6,0.2-6.8,0.3c-0.3,0-0.4-0.1-0.4-0.3C1201.8,93.5,1203.1,87.7,1204.4,81.9z M1207.5,96.4
				c0.7,0,1.2-0.3,1.3-0.9c0.7-3.3,1.3-6.7,2-10.1c0.1-0.6-0.2-0.9-0.9-0.9c-0.8,0-1.6,0-2.4,0c-0.8,4-1.7,8-2.5,11.9
				C1205.8,96.4,1206.6,96.4,1207.5,96.4z"/>
			<path class="st1" d="M1221.2,81.6c0.3,0,0.4,0.1,0.4,0.3c-0.8,5.5-1.7,11.1-2.6,16.6c0,0.2-0.2,0.3-0.5,0.4c-1,0-2,0.1-3,0.1
				c-0.3,0-0.4-0.1-0.4-0.3c0.9-5.6,1.9-11.2,2.8-16.7c0-0.2,0.2-0.3,0.5-0.3L1221.2,81.6L1221.2,81.6z"/>
			<path class="st1" d="M1235.8,81.6c0.4,0,0.5,0.2,0.4,0.5c-1.9,5.4-4,10.8-6.2,16.2c-0.1,0.3-0.3,0.4-0.7,0.4
				c-0.9,0-1.9,0-2.8,0.1c-0.3,0-0.5-0.1-0.6-0.4c-0.9-5.4-1.7-10.8-2.4-16.3c0-0.3,0.2-0.5,0.5-0.5h2.5c0.3,0,0.5,0.1,0.5,0.4
				c0.4,3.8,0.9,7.7,1.4,11.4c1.4-3.8,2.8-7.7,4.1-11.5c0.1-0.3,0.3-0.4,0.6-0.4L1235.8,81.6L1235.8,81.6z"/>
			<path class="st1" d="M1256.2,84c0,0.2-0.1,0.4-0.4,0.4c-2.2,0-4.4,0-6.7,0c0,1.4-0.1,2.8-0.1,4.2c1.7,0,3.5,0,5.2,0
				c0.3,0,0.4,0.1,0.4,0.4c0,0.7,0,1.4,0,2.1c0,0.2-0.2,0.4-0.4,0.4c-1.8,0-3.5,0-5.3,0c0,1.4-0.1,2.8-0.1,4.2c2.3,0,4.7,0,7,0
				c0.3,0,0.4,0.1,0.5,0.3c0,0.7,0,1.4,0,2.1c0,0.2-0.1,0.3-0.4,0.3c-3.5,0-7,0-10.5,0c-0.3,0-0.4-0.1-0.4-0.3
				c0.2-5.4,0.4-10.8,0.6-16.2c0-0.2,0.2-0.3,0.4-0.3h9.7c0.3,0,0.4,0.1,0.4,0.3C1256.2,82.6,1256.2,83.3,1256.2,84L1256.2,84z"/>
			<path class="st1" d="M1259,81.9c0-0.2,0.1-0.3,0.4-0.3h6.3c2.5,0,3.9,1.1,4,3.1c0.3,3.6,0.6,7.2,0.9,10.8c0.2,2-1.2,3-3.9,3
				c-2.3,0-4.6,0-6.8-0.1c-0.3,0-0.5-0.1-0.5-0.3C1259.3,92.7,1259.1,87.3,1259,81.9L1259,81.9z M1265.8,95.7c0.7,0,1.1-0.3,1.1-0.8
				c-0.2-3.2-0.4-6.4-0.6-9.6c0-0.6-0.4-0.9-1.1-0.9c-0.8,0-1.6,0-2.4,0c0.2,3.8,0.3,7.5,0.5,11.3
				C1264,95.7,1264.9,95.7,1265.8,95.7z"/>
			<path class="st1" d="M1275.6,81.6c0.3,0,0.4,0.1,0.5,0.3c0.6,5.5,1.2,10.9,1.8,16.4c0,0.2-0.1,0.3-0.4,0.3c-1,0-2,0-3-0.1
				c-0.3,0-0.5-0.1-0.5-0.3c-0.5-5.4-1-10.9-1.6-16.3c0-0.2,0.1-0.3,0.4-0.3L1275.6,81.6L1275.6,81.6z"/>
			<path class="st1" d="M1288.7,81.6c0.3,0,0.4,0.1,0.5,0.3c0.1,0.7,0.2,1.4,0.4,2.2c0,0.2-0.1,0.3-0.4,0.3c-1,0-2.1,0-3.1,0
				c0.7,4.7,1.5,9.4,2.2,14.1c0,0.2-0.1,0.3-0.4,0.3c-1,0-2-0.1-3-0.1c-0.3,0-0.5-0.1-0.5-0.4c-0.7-4.7-1.3-9.4-2-14.1
				c-1,0-2.1,0-3.1,0c-0.3,0-0.4-0.1-0.5-0.3c-0.1-0.7-0.2-1.4-0.3-2.1c0-0.2,0.1-0.3,0.4-0.3L1288.7,81.6L1288.7,81.6z"/>
			<path class="st1" d="M1294.7,81.6c0.3,0,0.4,0.1,0.5,0.3c1.1,5.7,2.2,11.3,3.4,17c0,0.2-0.1,0.3-0.4,0.3c-1,0-2-0.1-3-0.1
				c-0.3,0-0.5-0.2-0.5-0.4c-1-5.6-2.1-11.2-3.1-16.8c0-0.2,0.1-0.3,0.4-0.3L1294.7,81.6L1294.7,81.6z"/>
			<path class="st1" d="M1298.8,84.8c-0.4-2.1,0.6-3.2,3.1-3.2h2.9c2.5,0,4.1,1.1,4.6,3.3c1,3.9,2,7.8,3,11.7
				c0.6,2.2-0.6,3.2-3.3,3.1c-1.1-0.1-2.1-0.1-3.2-0.1c-2.7-0.1-4.3-1.3-4.8-3.4C1300.4,92.4,1299.6,88.6,1298.8,84.8L1298.8,84.8z
				 M1307.8,96.8c0.7,0,1.1-0.2,0.9-0.9c-0.8-3.5-1.7-7-2.5-10.5c-0.1-0.6-0.6-0.9-1.3-0.9c-0.5,0-1,0-1.5,0c-0.7,0-1,0.3-0.9,0.9
				c0.8,3.5,1.6,6.9,2.3,10.4c0.1,0.6,0.6,0.9,1.3,0.9C1306.7,96.7,1307.3,96.7,1307.8,96.8L1307.8,96.8z"/>
			<path class="st1" d="M1322.5,81.6c0.3,0,0.5,0.1,0.5,0.4c1.9,6.1,3.7,12.3,5.6,18.4c0.1,0.2-0.1,0.4-0.3,0.4
				c-0.9-0.1-1.9-0.1-2.8-0.2c-0.3,0-0.4-0.1-0.6-0.3c-2.4-3.5-4.8-6.9-7.1-10.2c-0.1,0-0.1,0-0.1,0c0.9,3.3,1.8,6.6,2.7,9.9
				c0.1,0.2,0,0.4-0.3,0.3c-1-0.1-2-0.1-3-0.2c-0.3,0-0.5-0.2-0.6-0.4c-1.6-5.9-3.1-11.8-4.7-17.8c-0.1-0.2,0.1-0.4,0.3-0.4h2.6
				c0.2,0,0.4,0.1,0.6,0.3c2.2,3.3,4.6,6.7,6.9,10.1c0.1,0,0.1,0,0.2,0c-1-3.3-1.9-6.7-2.9-10c-0.1-0.2,0-0.4,0.3-0.4L1322.5,81.6
				L1322.5,81.6z"/>
		</g>
		<g>
			<path class="st13" d="M1234.3,264.1c-0.3,0.1-0.3,0.3-0.3,0.6c0.1,0.7,0.2,1.4,0.2,2.1c0,0.3,0.2,0.5,0.6,0.5c1,0,1.9,0,2.9,0
				c0-0.3-0.1-0.7-0.1-1s0.2-0.5,0.5-0.5c0.9,0,1.7,0,2.6,0c0.3,0,0.6,0.2,0.6,0.5c0.1,1.3,0.2,2.5,0.3,3.8c0,0.3-0.2,0.5-0.5,0.5
				c-3.2,0-6.4,0-9.5,0c-0.3,0-0.6-0.2-0.6-0.5c-0.3-2.4-0.6-4.8-0.8-7.1c-0.1-0.5,0.1-0.7,0.6-0.9c2.1-1.1,4.2-2.2,6.3-3.3
				c-0.1-1.2-0.2-2.4-0.3-3.7c-0.1-0.6-0.5-1-1.2-0.9c-0.4,0-0.9,0-1.4,0.1c-0.8,0-1.1,0.4-1,1s0.1,1.3,0.2,1.9
				c0,0.2-0.1,0.4-0.4,0.4c-1,0-1.9,0.1-2.9,0.1c-0.3,0-0.5-0.1-0.5-0.4c-0.1-0.9-0.2-1.7-0.3-2.6c-0.3-2.3,1-3.6,3.7-3.7
				c1.1-0.1,2.1-0.1,3.2-0.2c2.7-0.1,4.2,1.1,4.4,3.4c0.1,2,0.3,3.9,0.4,5.9c0,0.5-0.2,0.7-0.7,0.9
				C1238.2,262,1236.3,263,1234.3,264.1L1234.3,264.1z"/>
			<path class="st13" d="M1244.3,254.1c-0.1-2.4,1.2-3.7,3.9-3.7c1.1,0,2.1,0,3.2-0.1c2.7,0,4.2,1.2,4.2,3.6c0.1,4.3,0.1,8.7,0.2,13
				c0,2.4-1.3,3.6-3.8,3.6c-1,0-2,0-3,0c-2.5,0-3.9-1.3-4-3.6C1244.8,262.7,1244.5,258.4,1244.3,254.1L1244.3,254.1z M1251.2,267.3
				c0.7,0,1.1-0.3,1.1-1c-0.1-3.9-0.2-7.8-0.3-11.7c0-0.7-0.4-1-1.2-1c-0.6,0-1.1,0-1.7,0c-0.7,0-1.1,0.4-1.1,1
				c0.2,3.9,0.3,7.8,0.5,11.7c0,0.7,0.4,1,1.1,1C1250.2,267.3,1250.7,267.3,1251.2,267.3L1251.2,267.3z"/>
			<path class="st13" d="M1263.5,263.9c-0.3,0.1-0.4,0.3-0.4,0.6c0,0.7,0,1.5,0,2.2c0,0.3,0.2,0.5,0.5,0.5c1,0,1.9,0,2.9,0
				c0-0.4,0-0.7,0-1s0.2-0.5,0.6-0.5c0.9,0,1.7,0,2.6,0c0.3,0,0.5,0.2,0.5,0.5c-0.1,1.3-0.1,2.6-0.2,3.9c0,0.3-0.2,0.5-0.6,0.5
				c-3.2,0-6.4,0-9.5,0c-0.3,0-0.5-0.2-0.5-0.5c0-2.5,0-5,0-7.5c0-0.5,0.2-0.7,0.7-0.9c2.2-1.1,4.4-2.1,6.6-3.2
				c0-1.2,0.1-2.5,0.1-3.7c0-0.7-0.4-1-1.1-1c-0.4,0-0.9,0-1.4,0c-0.8,0-1.1,0.3-1.2,1s0,1.3,0,2c0,0.2-0.2,0.4-0.4,0.4
				c-1,0-1.9,0-2.9,0c-0.3,0-0.4-0.1-0.4-0.4c0-0.9,0-1.8,0-2.7c0-2.4,1.4-3.7,4.2-3.6c1.1,0,2.1,0,3.2,0c2.7,0.1,4.1,1.4,4,3.7
				c-0.1,2-0.2,4-0.3,5.9c0,0.5-0.2,0.7-0.8,0.9C1267.6,261.8,1265.6,262.8,1263.5,263.9L1263.5,263.9z"/>
			<path class="st13" d="M1286.7,261.8c0.4,0,0.5,0.2,0.5,0.5c-0.1,0.7-0.2,1.4-0.2,2.1c0,0.3-0.2,0.5-0.6,0.5s-0.7,0-1.1,0
				c-0.2,1.8-0.4,3.5-0.6,5.3c0,0.3-0.2,0.5-0.6,0.5c-0.8,0-1.5,0-2.3,0c-0.3,0-0.5-0.2-0.5-0.5c0.2-1.8,0.3-3.6,0.5-5.4
				c-2.6,0-5.2-0.1-7.8-0.1c-0.3,0-0.5-0.2-0.5-0.5c0-0.7,0.1-1.5,0.1-2.2c0-0.2,0.1-0.4,0.2-0.6c2.6-3.4,5.2-6.8,8-10.1
				c0.2-0.2,0.4-0.3,0.7-0.3c1,0.1,2,0.1,3,0.2c0.5,0,0.6,0.3,0.3,0.6c-2.8,3.2-5.4,6.6-8,10c1.4,0,2.8,0.1,4.2,0.1
				c0.1-1,0.2-2,0.3-3c0-0.3,0.2-0.5,0.6-0.5c0.8,0,1.6,0.1,2.4,0.1c0.4,0,0.5,0.2,0.5,0.5c-0.1,1-0.2,1.9-0.3,2.9
				C1286,261.7,1286.3,261.8,1286.7,261.8L1286.7,261.8z"/>
		</g>
		<g>
			<g>
				<polygon class="st12" points="1323.1,254.4 1307.1,277.8 1258.7,301.4 1210.3,277.8 1194.3,254.4 1215.1,273.8 1258.7,291.7 
					1302.3,273.8 				"/>
				<path class="st13" d="M1164.8,253.6c-1.9,0.2-6.9,1.2-6.9,1.2l28.3,41.5l72.4,35.4v-5.2l-67.7-34.1L1164.8,253.6L1164.8,253.6z"
					/>
				<path class="st1" d="M1258.7,318.7v7.7l-67.7-34.1l-26.1-38.7c2.3-0.2,4.6-0.4,6.9-0.6l23.8,34.9L1258.7,318.7z"/>
				<path class="st1" d="M1352.5,253.6c1.9,0.2,6.9,1.2,6.9,1.2l-28.3,41.5l-72.4,35.4v-5.2l67.7-34.1L1352.5,253.6L1352.5,253.6z"
					/>
				<path class="st13" d="M1258.7,318.7v7.7l67.7-34.1l26.1-38.7c-2.3-0.2-4.6-0.4-6.9-0.6l-23.8,34.9L1258.7,318.7z"/>
				<polygon class="st14" points="1323.1,254.4 1305.6,275 1258.7,296 1211.8,275 1194.3,254.4 1215.1,273.8 1258.7,291.7 
					1302.3,273.8 				"/>
			</g>
			<g>
				<path class="st15" d="M1175.7,213.9c0,0.4-0.3,0.6-0.8,0.7c-1.5,0.2-2.9,0.3-4.4,0.5c-0.5,0.1-0.7-0.1-0.7-0.5
					c0.1-1,0.2-2,0.2-3c0.1-1-0.5-1.4-1.6-1.3c-0.8,0.1-1.5,0.2-2.3,0.3c-1.2,0.1-1.8,0.7-1.9,1.7c-0.5,5.8-1,11.5-1.5,17.3
					c-0.1,1,0.5,1.4,1.7,1.3c0.8-0.1,1.6-0.2,2.4-0.3c1.2-0.1,1.9-0.7,1.9-1.7c0.1-1,0.2-2,0.2-3c0-0.4,0.3-0.6,0.8-0.7
					c1.5-0.2,3-0.3,4.5-0.5c0.4-0.1,0.7,0.1,0.7,0.5c-0.1,1.4-0.2,2.7-0.2,4.1c-0.2,3.6-2.7,5.7-7,6.2c-1.7,0.2-3.4,0.4-5.2,0.6
					c-4.3,0.5-6.5-1.2-6.2-4.7c0.6-6.5,1.2-12.9,1.9-19.4c0.3-3.6,2.8-5.7,6.9-6.2c1.6-0.2,3.3-0.4,4.9-0.6c4.1-0.5,6.1,1.2,5.9,4.7
					C1175.9,211.2,1175.8,212.6,1175.7,213.9L1175.7,213.9z"/>
				<path class="st15" d="M1189.2,208.6c0.3-3.6,2.6-5.6,6.6-5.9c1.6-0.1,3.2-0.2,4.8-0.4c4-0.3,6.1,1.4,6,5
					c-0.2,6.5-0.5,13-0.7,19.5c-0.1,3.6-2.5,5.6-6.7,5.9c-1.7,0.1-3.4,0.2-5.1,0.4c-4.3,0.3-6.4-1.4-6.2-5
					C1188.2,221.6,1188.7,215.1,1189.2,208.6z M1198.2,227.9c1.2-0.1,1.8-0.6,1.9-1.6c0.3-5.9,0.6-11.7,0.8-17.6
					c0.1-1-0.5-1.5-1.7-1.4c-0.8,0.1-1.7,0.1-2.5,0.2c-1.1,0.1-1.8,0.7-1.8,1.6c-0.4,5.9-0.7,11.7-1.1,17.6c-0.1,1,0.5,1.5,1.7,1.4
					C1196.4,228,1197.3,227.9,1198.2,227.9L1198.2,227.9z"/>
				<path class="st15" d="M1237.4,200.5c0.4,0,0.7,0.2,0.7,0.6c-0.1,9.8-0.2,19.5-0.3,29.2c0,0.4-0.3,0.6-0.7,0.6
					c-1.5,0.1-3,0.1-4.5,0.1c-0.4,0-0.7-0.1-0.8-0.5c-2.2-5.4-4.3-10.7-6.4-16c-0.1,0-0.2,0-0.2,0c-0.2,5.4-0.3,10.8-0.5,16.1
					c0,0.4-0.2,0.6-0.7,0.6c-1.6,0.1-3.1,0.1-4.7,0.2c-0.4,0-0.7-0.2-0.7-0.6c0.4-9.8,0.9-19.5,1.3-29.2c0-0.4,0.3-0.6,0.7-0.6
					c1.4-0.1,2.8-0.1,4.2-0.2c0.4,0,0.6,0.1,0.8,0.5c2,5.3,4,10.6,6.2,15.9c0.1,0,0.2,0,0.3,0c0.1-5.4,0.2-10.7,0.3-16.1
					c0-0.4,0.2-0.6,0.7-0.6C1234.5,200.6,1236,200.5,1237.4,200.5L1237.4,200.5z"/>
				<path class="st15" d="M1266.6,200.3c0.5,0,0.7,0.2,0.7,0.6c0,1.3,0.1,2.5,0.1,3.8c0,0.4-0.2,0.6-0.7,0.6c-1.7,0-3.3,0-5,0
					c0.1,8.3,0.1,16.6,0.2,24.8c0,0.4-0.2,0.6-0.7,0.6c-1.6,0-3.1,0-4.7,0c-0.4,0-0.7-0.2-0.7-0.6c0-8.3,0.1-16.6,0.1-24.8
					c-1.7,0-3.3,0-5,0c-0.4,0-0.7-0.2-0.7-0.6c0-1.3,0-2.5,0.1-3.8c0-0.4,0.3-0.6,0.7-0.6C1256.1,200.3,1261.3,200.3,1266.6,200.3
					L1266.6,200.3z"/>
				<path class="st15" d="M1296.2,205.7c0,0.4-0.1,0.6-0.7,0.6c-3.6-0.2-7.2-0.3-10.8-0.4c0.1,2.5,0.1,5.1,0.2,7.6
					c2.8,0.1,5.6,0.2,8.3,0.3c0.4,0,0.7,0.3,0.7,0.7c0.1,1.3,0.1,2.5,0.2,3.8c0,0.4-0.2,0.6-0.7,0.6c-2.8-0.1-5.6-0.2-8.4-0.3
					c0.1,2.6,0.1,5.1,0.2,7.7c3.7,0.1,7.5,0.3,11.2,0.4c0.5,0,0.7,0.2,0.7,0.6c0.1,1.3,0.1,2.5,0.2,3.8c0,0.4-0.2,0.6-0.7,0.6
					c-5.6-0.2-11.1-0.4-16.6-0.6c-0.4,0-0.7-0.2-0.7-0.6c-0.1-9.8-0.2-19.5-0.3-29.2c0-0.4,0.2-0.6,0.6-0.6
					c5.2,0.2,10.5,0.4,15.7,0.6c0.5,0,0.7,0.3,0.7,0.6C1296,203.2,1296.1,204.5,1296.2,205.7L1296.2,205.7z"/>
				<path class="st15" d="M1318.8,202.9c4.1,0.3,6.3,2.4,6.6,6c0.1,1.3,0.2,2.7,0.3,4c0,0.4-0.2,0.6-0.7,0.6
					c-1.5-0.1-3.1-0.2-4.6-0.4c-0.4,0-0.7-0.3-0.7-0.7c-0.1-1-0.1-2-0.2-3s-0.7-1.6-1.8-1.7c-0.7-0.1-1.4-0.1-2.1-0.2
					c-1.1-0.1-1.7,0.4-1.7,1.4c0.1,1.8,0.2,3.5,0.3,5.2c3.5,1.2,7.1,2.5,10.7,3.8c0.8,0.3,1.2,0.8,1.3,1.5c0.2,2.9,0.4,5.9,0.6,8.8
					c0.3,3.6-1.9,5.3-6.2,5c-1.7-0.1-3.4-0.2-5.1-0.4c-4.2-0.3-6.6-2.4-6.8-5.9c-0.1-1.3-0.1-2.7-0.2-4c0-0.4,0.2-0.6,0.7-0.6
					c1.6,0.1,3.1,0.2,4.6,0.3c0.5,0,0.7,0.2,0.8,0.7c0.1,1,0.1,1.9,0.1,2.9c0.1,1,0.8,1.6,1.9,1.6c0.7,0.1,1.4,0.1,2.2,0.2
					c1.2,0.1,1.8-0.4,1.7-1.4c-0.1-1.7-0.2-3.4-0.3-5.1c-3.6-1.3-7.2-2.5-10.7-3.8c-0.8-0.3-1.2-0.8-1.2-1.5c-0.1-3-0.2-6-0.4-9
					c-0.1-3.6,2-5.3,6-5C1315.5,202.6,1317.1,202.7,1318.8,202.9L1318.8,202.9z"/>
				<path class="st15" d="M1353.1,206.4c0.5,0.1,0.7,0.3,0.8,0.7c0.1,1.3,0.2,2.5,0.4,3.8c0,0.4-0.2,0.6-0.7,0.5
					c-1.7-0.2-3.4-0.4-5.1-0.6c0.7,8.2,1.4,16.4,2.1,24.7c0,0.4-0.2,0.6-0.7,0.5c-1.6-0.2-3.2-0.3-4.8-0.5c-0.5-0.1-0.8-0.3-0.8-0.7
					c-0.6-8.2-1.2-16.4-1.9-24.7c-1.7-0.2-3.4-0.4-5.1-0.6c-0.4-0.1-0.7-0.3-0.7-0.7c-0.1-1.3-0.2-2.5-0.2-3.8
					c0-0.4,0.2-0.6,0.7-0.5C1342.4,205.1,1347.7,205.7,1353.1,206.4L1353.1,206.4z"/>
			</g>
		</g>
		<g>
			<g>
				<path class="st13" d="M1228.2,47.9c-10.3,1.3-20.5,3.3-30.6,6.1c-14.9,4.1-29.9,10-44.8,17.4l-3.2,1.6v37.2
					c2.2-0.3,4.3-0.5,6.5-0.8V76.3c14.5-7.2,29.1-12.9,43.5-16.9c11.4-3.2,23-5.3,34.6-6.5L1228.2,47.9L1228.2,47.9z"/>
				<path class="st13" d="M1359.8,71.8c-16-7.5-31.9-13.5-47.5-17.6c-9.4-2.5-18.9-4.5-28.3-5.8l-5.7,4.9v0.1
					c10.6,1.2,21.4,3.3,32.1,6.2c15.2,4.1,30.7,9.8,46.3,17.2v32.6c2.2,0.2,4.3,0.5,6.5,0.8V73.4L1359.8,71.8L1359.8,71.8z"/>
			</g>
			<g>
				<path class="st1" d="M1234.4,53.2l-0.3-0.3c-11.6,1.2-23.2,3.3-34.6,6.5c-14.5,4-29.1,9.7-43.5,16.9v33.2
					c2.2-0.2,4.3-0.5,6.5-0.7V79.6c13-6.3,26.1-11.3,39-14.8c10.5-2.9,21.2-5,31.9-6.1L1234.4,53.2L1234.4,53.2z"/>
				<path class="st1" d="M1310.4,59.5c-10.7-2.9-21.5-4.9-32.1-6.2l1.2,5.9c9.6,1.2,19.3,3.1,29.1,5.8c13.6,3.7,27.7,8.8,41.7,15.2
					v28.5c2.2,0.2,4.3,0.5,6.5,0.7V76.8C1341.1,69.4,1325.6,63.6,1310.4,59.5L1310.4,59.5z"/>
			</g>
			<polygon class="st12" points="1256.3,55.2 1245.3,60.3 1247.4,49.5 1238.5,41.9 1250.8,40.3 1256.3,30.5 1261.8,40.3 
				1274.2,41.9 1265.3,49.5 1267.4,60.3 			"/>
			<polygon class="st14" points="1245.3,60.3 1256.3,49.6 1267.4,60.3 1256.3,55.2 			"/>
		</g>
	</g>
</g>
</svg>
